<?xml version="1.0" encoding="UTF-8"?>
<svg id="_Ñëîé_1" data-name="Ñëîé 1" xmlns="http://www.w3.org/2000/svg" viewBox="0 0 2374.5 812">
  <defs>
    <style>
      .cls-1, .cls-2 {
        fill: #49583c;
      }

      .cls-1, .cls-2, .cls-3, .cls-4 {
        stroke-width: 0px;
      }

      .cls-2 {
        fill-rule: evenodd;
      }

      .cls-3, .cls-4 {
        fill: #d5702b;
      }

      .cls-4 {
        opacity: .6;
      }
    </style>
  </defs>
  <g>
    <path class="cls-4" d="M2384.93,385.03h-5.53v-3.02h4.08l-4.64-9.71h-21.22l-4.64,9.71h4.09v3.02h-5.53l-4.19,12.94h-4.88v23.26h-10.43v8.09h-23.89v-.77h-.76v.35h-1.75v-40.57h-2.06v-3.23h-1.66v-4.48h-.52v14.92h-2.35v-12.44h-.51v2.01h-15.79v3.23h-2.06v16.11h-7.87v-40.78h-38.24v-38.92h-3.8v-6.09h-3.07v-5.72h-.95v16.16h-4.34v-13h-.96v2.56h-3.42v-3.44c0-2.11-4.79-14.27-10.65-14.27s-10.65,12.16-10.65,14.27v3.44h-4.42v6.09h-2.25v-2.06h-1.01v-4.31h-1.77v14.75h-4.02v-14.75h-1.77v4.31h-3.39v36.89h-18.17v-60.97h-80.2v60.97h-25.86v5.93h2.7v2.38h-5.99v49.31l-9.32-10.43v11.43h-1.77v-25.36h-3.78v-119.85h-3.35v-11.8h-2.97v-5.42h-.92v15.86h-4.2v-14.04h-.92v3.6h-28.17v11.8h-2.48v148.32h-3.43v-83.76h-4.79v-25.06h-2.24l-1.92-14.47h-2.54v-1.39h1.87l-2.13-4.46h-9.74l-2.14,4.46h1.88v1.39h-2.54l-1.93,14.47h-2.24v25.06h-4.79v87.23h-3.76v-3.63h-7.12v-163.74h-4.29v-2.46c0-3.99-6.28-17.69-13.94-17.69s-45.39,13.7-45.39,17.69v2.46h-4.3v136.61h-14.22v-179.16h-4.96v-16.66h-53.14v16.66h-4.95v187.31h-6.55v-136.99h-4.46v-6.99h-3.61v-9.71h-1.12v20.14h-5.09v-14.79h-1.12v4.35h-4.02v-5.82c0-3.58-5.62-16.95-12.5-16.95s-12.5,13.37-12.5,16.95v5.82h-5.2v6.99h-2.64v-2.42h-1.19v-5.05h-2.07v5.05h-4.72v-5.05h-2.07v5.05h-4.72v-5.05h-2.07v5.05h-4.72v-5.05h-2.08v5.05h-4.71v-5.05h-2.07v5.05h-1.19v2.42h-2.34v102h-12.18v-36.68c0-1.83-1.1-3.41-2.64-4.11v-50.9h-37.76v47.7h-6.85v-10.82h-1.25v10.82h-5.68v-4.85h-1.24v4.85h-38.13v77.94h-4.31v-80.21l-8.38-7.91h-50.2l-8.39,7.91v5.07h-1.42c-2.42,0-4.4,2.02-4.4,4.49v72.13h-5.85v-103.5h-2.05v-3.23h-1.67v-4.48h-.52v4.48h-2.35v-2.01h-.52v2.01h-3.7v-83.9h-4.88v-6.28h1.57v-4.45h-41.84v4.45h1.58v6.28h-4.88v80.55h-41.08v-89.66h-4.97v-7.8h-4.02v-10.82h-1.25v19.17h-5.68v-13.2h-1.24v4.85h-38.13v7.8h-4.97v41.07h-.72v-5.74h-.66v5.74h-3.01v-2.57h-.66v2.57h-20.22v4.13h-2.63v110.97h-32.09v-63.47h-14.23v-6.73c0-2.49-2.03-4.52-4.51-4.52h0l-.94-1.3h-1.59v-.58h1.17l-1.33-1.85h-2.48v-.79h.92v-.46h-.92v-2.57h.92v-.46h-.92v-1.34h1.31v-.46h-3.66v.46h1.31v1.34h-.92v.46h.92v2.57h-.92v.46h.92v.79h-2.59l-1.33,1.85h1.17v.58h-1.59l-.94,1.3h-2.07v-2.91h-4.8v-12.92h-1.48v27.52h-6.78v-20.39h-1.49v5.79h-11.22v2.91h-3.14c-2.49,0-4.52,2.03-4.52,4.52v6.73h-14.23v97.25h1.74v1.18h-1.74v17.93h-2.32v-23.18h-8.98v9.26h-1.26v-4.25h-2.5v-109.79h-2.06v-54.13h-1.67v-4.48h-.51v4.48h-2.35v-2.01h-.52v2.01h-15.79v54.13h-2.05v109.79h-.53v12.99h-2.59v-14.5h2.92v-3.33l-7.66-5.71h-.03v-61.29h-38.23v-57.87h-3.8v-16.53h-3.07v-5.72h-.96v5.72h-4.33v-2.56h-.96v2.56h-3.42v-3.44c0-2.11-4.79-14.27-10.66-14.27s-10.65,12.16-10.65,14.27v3.44h-4.42v16.53h-2.26v-2.06h-1.01v-4.31h-1.78v4.31h-4.02v-4.31h-1.77v4.31h-3.4v126.45l-.66.49v3.33h.66v26.22h-2.55v-1.53h-1.18v-62.98h.74v-6.79h-3.12l-14.38-26.52-14.38,26.52h-3.12v6.79h.74v64.52h-3.66v-11.3h-1.62v-94.44h-13.02v-90.77h-66.76v95.88h-20.09v-76.15h-3.35v-11.8h-2.97v-5.42h-.92v15.86h-4.19v-14.04h-.92v3.6h-28.18v11.8h-2.48v166.94h-.07v-1.86h-3.36v-69.21h-4.79v-25.06h-2.24l-1.92-14.47h-2.54v-1.39h1.87l-2.13-4.46h-9.75l-2.13,4.46h1.87v1.39h-2.54l-1.92,14.47h-2.24v25.06h-4.79v69.21h-4.99v-159.36h1.32v-12.34h-8.21v-11.25l-8.48-20.63h-8.5l-2.98-24.7-3.29-27.26-3.29,27.26-2.98,24.7h-8.5l-8.48,20.63v11.25h-8.21v12.34h1.33v141.48l-7.6-5.67h-5.9v-146.68h-4.3v-2.46c0-3.99-6.27-17.69-13.93-17.69s-13.93,13.7-13.93,17.69v2.46h-4.3v146.68h-3.58v-95.95l-10.99-16.67h-5.06v-51.18l-10.99-20.63h-7.6v-39.41l-10.5-18.34h-2.09l-10.51,18.34v39.41h-7.6l-10.99,20.63v51.18h-5.06l-11,16.67v106.75h-4.08v-85.95h-5.24v5.33h-56.27v-5.33h-5.25v94.1h-4.7v-157.86h-4.46v-17.43h-3.61v-9.71h-1.12v9.71h-5.09v-4.35h-1.12v4.35h-4.01v-5.82c0-3.58-5.63-16.95-12.5-16.95s-12.51,13.37-12.51,16.95v5.82h-5.19v17.43h-2.65v-12.85h-1.19v-5.05h-2.07v5.05h-4.72v-5.05h-2.07v5.05h-4.72v-5.05h-2.07v5.05h-4.72v-5.05h-2.07v5.05h-4.71v-5.05h-2.08v5.05h-1.19v12.85h-2.34v122.87h-12.17v-36.68c0-1.83-1.1-3.41-2.65-4.11v-61.98h-37.75v58.78h-6.85v-10.82h-1.25v42.13h-5.68v-36.15h-1.25v4.85h-1.84v-63.19h1.12v-18.07h-11.47l-6.48-12.98-8.42-16.85-8.41,16.85-6.48,12.98h-11.47v18.07h1.12v53.02h-27.72l-8.39,7.91v5.07h-1.43c-2.41,0-4.39,2.02-4.39,4.49v72.13h-5.85v-42.8h-2.06v-3.23h-1.66v-4.48h-.51v4.48h-2.35v-2.01h-.52v2.01h-7.87v-63.03h-4.87v-6.28h1.57v-7.58h-41.84v7.58h1.57v6.28h-4.87v101.42h-36.91v-100.09h-4.97v-7.8h-4.02v-10.82h-1.25v10.82h-5.68v-4.85h-1.25v4.85h-38.13v7.8h-4.97v82.81h-.72v-5.74h-.67v16.17h-3.01v-13h-.66v2.57l-20.21,10.43v4.13h-2.64v50.28h-11.12v-43.24h-14.23v-6.73c0-2.49-2.03-4.52-4.52-4.52l-.94-1.3h-1.59v-.58h1.18l-1.34-1.85h-2.48v-.79h.91v-.46h-.91v-2.57h.91v-.46h-.91v-1.34h1.31v-.46h-3.67v.46h1.31v1.34h-.91v.46h.91v2.57h-.91v.46h.91v.79h-2.58l-1.33,1.85h1.17v.58h-1.59l-.94,1.3h-2.07v-2.91h-4.79v-12.92h-1.49v25.44h-6.77v-18.31h-1.49v5.79h-11.22v2.91h-3.14c-2.48,0-4.52,2.03-4.52,4.52v6.73h-8.07v66.24h2361.39v-38.08l-13.57.51v-38.77l-1.99-4.16ZM262.95,293.55h-6.24v-6.28h6.24v6.28ZM271.93,293.55h-6.24v-6.28h6.24v6.28ZM280.91,293.55h-6.24v-6.28h6.24v6.28ZM289.9,293.55h-6.24v-6.28h6.24v6.28ZM748.26,236.53h-3.81v-2.18h3.81v2.18ZM754.81,236.53h-3.81v-2.18h3.81v2.18ZM761.37,236.53h-3.81v-2.18h3.81v2.18ZM767.92,236.53h-3.81v-2.18h3.81v2.18ZM787.92,406.76h-2.86v-14.5h2.86v14.5ZM948.17,336.58h-10.68v-12.82h10.68v12.82ZM952.97,326.14h-.11v-2.38h.11v2.38ZM1473.07,211.98h-6.24v-6.28h6.24v6.28ZM1482.06,211.98h-6.24v-6.28h6.24v6.28ZM1491.05,211.98h-6.24v-6.28h6.24v6.28ZM1500.03,211.98h-6.24v-6.28h6.24v6.28ZM1887.49,257.4h-3.81v-2.18h3.81v2.18ZM1925.51,257.4h-35.27v-2.18h35.27v2.18ZM1932.06,257.4h-3.81v-2.18h3.81v2.18ZM1938.62,257.4h-3.81v-2.18h3.81v2.18ZM2071.93,367.88h-10.68v-2.38h10.68v2.38ZM2079.72,367.88h-3.09v-2.38h3.09v2.38ZM2160.41,367.59l-.5-.92v-1.17h.5v2.09ZM2175.79,367.88h-10.68v-2.38h10.68v2.38Z"/>
    <path class="cls-3" d="M2390.07,445.17l1-31.2h-.33c-1.34-6.26-7.54-11-15.01-11-8.44,0-15.28,6.05-15.28,13.52,0,1.27.21,2.5.58,3.66h-13.58v-14.14h-28.59v21.9h-13.97v-46.35h-11.96v-7.66h-14.63v-20.1h-3.33v20.1h-19.28v10.02h-8.64v45.93h-19.95v10.56h-7.98v-70.73h-59.18v-22.98h-17.94v-8.84h-31.92v10.61h-9.31v54.23h-21.28v-25.94l-29.93,41.26h-21.93v3.5h-9.31v-81.89h-35.9v8.84h-17.96v43.62h-29.91v-13.24c1.53-2.1,2.42-4.6,2.42-7.29,0-7.47-6.84-13.52-15.28-13.52s-15.28,6.05-15.28,13.52c0,2.94,1.07,5.65,2.87,7.87v11.18h-8.65v-68.52l-18.95,22.1v14.15h-19.95v-41.11h-21.93v-23.02h-3.49v23.02h-22.95v82.67l-21.93-22.5v40.5h-5.99v-53.37h-11.97v-15.03l-27.93-23.43v10.61h-14.96v-30.03h-6.48v-9.78h-12.3v9.49h-9.32v22.67h-27.91v60.28c-2.26-4.97-7.75-8.48-14.17-8.48-6.92,0-12.76,4.07-14.64,9.66v-21.97h-22.39v25.35h-28.81v-64.84h-27.91v-22.67h-9.32v-9.49h-12.3v9.78h-6.48v30.03h-14.96v-10.61l-27.93,23.43v15.03h-11.97v77.37h-5.99v-42h-21.93v-82.67h-22.95v-15.52h-3.49v15.52h-21.93v41.11h-19.95v-14.15l-18.95-22.1v68.52h-8.65v-19.15h-25.27v17.09c-.8-6.8-7.3-12.1-15.2-12.1-7.03,0-12.93,4.2-14.72,9.92v-37.9h-17.96v21.16h-35.9v39.89h-9.31v-74h-21.93l-29.93,41.24v25.94h-21.27v-31.73h-9.31v19.39h-31.92v-73.66h-17.94v22.98h-59.18v60.21h-7.98v-6.04h-2.62v6.04h-5.54v-82.67h-22.95v21.98h-3.49v-21.98h-21.94v41.11h-19.95v-14.15l-18.95-22.1v68.52h-8.65v-49.15h-25.27v50.63h-29.91v-43.62h-17.96v-8.84h-35.91v70.06l-13.23-.51.76-51.19c2-9.34,3.18-17.95,3.18-21.29,0-8.74-8-15.82-17.88-15.82s-17.88,7.08-17.88,15.82c0,3.18,1.06,11.11,2.89,19.91l-.03,46.32-18.98-26.16v25.94h-4.32v-69.23h-9.31v-10.61h-12.23v-3.83h-28.59v12.68h-9.04v36.22h-30.36v-58.35h-11.96v-7.66h-14.63v-12.6h-3.33v12.6h-19.28v10.02h-8.64v81.93h-15.86v-81.93h-8.64v-10.02h-19.28v-12.6h-3.33v12.6h-14.63v7.66h-11.96v58.35h-4.93v-21.22h-9.04v-12.68h-28.59v3.83h-12.23v10.31h-8.71l-.13.3h-.47v1.04l-15.35,34.04h-5.92v-6.78l-4.92,6.78h-14.1v-86.56l-29.92,30,1,82.2-13.23.51v-107.56h-.15c0-8.74-8-15.82-17.88-15.82s-17.88,7.08-17.88,15.82v46.34h-17.96v36.33c-2.31-4.88-7.75-8.3-14.1-8.3-8.44,0-15.28,6.05-15.28,13.52,0,.71.08,1.39.2,2.07h-.73v-20.63h-25.27v19.15h-8.65v-68.52l-18.95,22.1v14.15h-19.95v-41.11h-21.94v-38.02h-3.49v38.02h-22.95v82.67h-21.93v42h-5.99v-11.37h-11.97v-15.03l-27.93-13.83v10.61h-14.96v-15.03h-6.48v-39.78h-12.3v39.49h-9.32v7.67h-27.91v44.8h-23.04v-14.91h-15.96v31.03h2400v-19.48l-22.94-.88ZM1334.57,392.07h-.12c.04-.23.09-.45.12-.68v.68Z"/>
    <g>
      <path class="cls-1" d="M475.54,355.41c-.22-.21-.46-.39-.73-.56-.03-.02-.05-.03-.08-.05-.07-.99-.41-1.95-.95-2.63-.01-.02-.03-.03-.04-.05.06-.62,0-1.28-.15-1.92.12-.14.22-.27.31-.41.17-.25.3-.51.42-.78.06-.15.11-.3.15-.46.04-.16.07-.32.1-.49.05-.37.05-.73,0-1.09-.03-.21-.07-.41-.12-.59-.06-.2-.13-.4-.21-.61-.57-1.33-1.47-2.15-2.7-2.43-.04-.5-.16-.98-.38-1.42-.41-.86-1.15-1.56-2.02-1.92-.17-.07-.34-.13-.51-.17-.21-.57-.53-1.08-.93-1.48-.07-.07-.14-.14-.21-.2-.02-.15-.05-.29-.09-.42-.19-.53-.64-.9-1.26-1.05-.6-.15-1.36-.09-2.21.17.18-.96.06-1.86-.38-2.64-.43-.78-1.17-1.41-2.08-1.78-.79-.32-1.7-.42-2.47-.29-.09.01-.17.03-.26.05-.03-.05-.07-.11-.11-.16-.14-.2-.3-.39-.49-.58-.17-.16-.35-.31-.57-.46-.01,0-.02-.02-.04-.02-.01-.05-.02-.09-.04-.14-.36-1.35-1.26-2.27-2.6-2.66-1.17-.34-2.25-.2-3.13.41-.21-.45-.49-.85-.86-1.21-.28-.27-.56-.47-.86-.63-.34-.17-.72-.31-1.14-.41-1.55-.35-2.87,0-3.84,1.04-.39.41-.72.91-1.01,1.51-.08.17-.16.35-.24.55-.19-.35-.39-.65-.61-.9-.21-.23-.43-.44-.68-.61-.28-.19-.57-.34-.86-.43-.33-.1-.67-.16-1.03-.18h-.05c-.16,0-.33,0-.51.03-.4-.04-.77-.02-1.11.04-.1.02-.19.04-.29.07-.32-.05-.64-.06-.98-.03-.59.07-1.14.25-1.59.52-.7.41-1.27,1.04-1.59,1.77-.02-.01-.05-.02-.07-.04-.24-.11-.49-.17-.73-.18-.27-.01-.54.04-.79.15-.31.14-.55.33-.74.58-.23.28-.43.64-.59,1.05-.14.35-.24.71-.31,1.1-.36-.26-.74-.46-1.13-.59-.3-.1-.56-.16-.79-.19-.25-.03-.51-.03-.76-.01-.25.02-.5.06-.74.12-.29.07-.52.15-.71.25-.43.2-.84.46-1.22.77-.19.15-.36.33-.52.51-.15.17-.29.36-.42.54-.14.2-.26.39-.35.58-.03.03-.05.05-.08.08-.06.06-.12.13-.17.19l-.13.17c-.18.25-.31.48-.41.69-.1.21-.17.44-.23.66-.36-.14-.77-.27-1.24-.35-.65-.1-1.26-.08-1.81.09-.69.22-1.33.62-1.89,1.2-1.06,1.14-1.41,2.46-1.03,3.8.27.93.84,1.78,1.44,2.52-.87-.06-1.66.08-2.34.38-.4.14-.77.32-1.11.54-.96.6-1.69,1.46-2.05,2.42-.38.99-.34,2.04.09,3-.98.06-1.83.36-2.4.85-.58.5-.88,1.14-.84,1.8.02.54.25,1.08.66,1.52.19.21.41.37.61.5-.72.38-1.29,1.02-1.6,1.83-.2.5-.3,1.07-.3,1.7.02.62.15,1.23.38,1.77.48,1.16,1.42,2.09,2.5,2.5.94.36,1.99.34,2.98-.04-.28.91-.48,2-.23,3.06.08.33.2.64.38.97.08.15.15.28.25.41.09.14.2.28.32.41.28.31.55.54.85.74.35.22.75.41,1.2.57.91.29,1.77.36,2.52.2.8-.15,1.41-.54,1.79-.85.49-.39.82-.85,1.04-1.16.09-.14.17-.26.25-.38,0,0,0-.01.01-.02.08.12.18.24.29.36.13.13.28.25.44.37.2.14.39.25.57.32.54.25,1.22.4,1.91.42.02.1.05.21.08.31.1.32.27.6.49.84.2.21.44.36.71.45.24.08.48.11.77.1.23-.01.48-.07.74-.16.21-.07.42-.17.62-.28-.02.26-.02.51,0,.77.04.45.17.9.39,1.37.44.9,1.17,1.62,2.05,2.03.24.12.48.21.71.27.27.07.51.12.75.15.14.01.28.02.42.02.41,0,.78-.05,1.13-.16.28-.08.52-.18.76-.29.25-.13.49-.28.71-.46.3-.23.57-.51.83-.83.06.36.15.73.26,1.09.21.68.47,1.23.81,1.68.44.57.96.98,1.55,1.21.38.16.74.25,1.11.28.33.04.67.04,1,.01-.15,2.29-.26,4.44-.33,6.49-.07-.17-.16-.33-.24-.49l-.05-.08c-.11-.2-.24-.42-.4-.61-.33-.43-.69-.79-1.08-1.09-.19-.26-.41-.49-.65-.68-.23-.71-.66-1.36-1.21-1.86-.65-.59-1.47-.96-2.32-1.05-.02-.05-.05-.1-.07-.14-.07-.12-.14-.24-.23-.36-.07-.1-.16-.19-.28-.32-.22-.22-.45-.4-.67-.53-.46-.29-1.02-.49-1.65-.59-.07,0-.14-.02-.22-.02h-.2c-.12-.02-.23-.02-.36,0-.22.02-.44.06-.65.12-.23.06-.44.15-.62.24-.1.05-.21.11-.32.19,0,0-.02,0-.03,0-.44.16-.88.45-1.27.85-.35-.18-.75-.32-1.2-.43-.08-.04-.15-.07-.22-.09-.13-.04-.26-.05-.39-.05-.35-.2-.72-.34-1.12-.41-1.01-.19-2.16.05-3.09.64-.38.24-.74.53-1.05.87-.52.1-1.04.33-1.5.67-.17.12-.34.26-.51.43-.04.04-.08.07-.11.11-.32,0-.63.07-.95.2-.53.22-.9.62-1.04,1.12-.28.09-.55.21-.81.37-.53.33-1.27.97-1.78,2.17-.2.47-.33.96-.4,1.44-.29.7-.35,1.53-.18,2.4.21,1.06.71,2.03,1.41,2.71.15.15.32.29.49.42l.03.02c.17.1.31.16.45.21.3.11.59.17.88.19-.13.35-.21.71-.23,1.08-.48.37-.84.78-1.11,1.25-.37.66-.53,1.41-.46,2.17.08.91.45,1.83,1.08,2.67.61.8,1.38,1.38,2.22,1.67.38.12.73.19,1.06.2.32.02.64-.01.95-.08.8-.17,1.42-.53,1.84-.79.01.14.04.28.08.42.09.34.27.7.54,1.07.56.77,1.47,1.39,2.47,1.71.49.16,1.04.25,1.58.25h.12c.26-.02.56-.04.86-.11.14-.03.28-.07.42-.11.13-.05.27-.1.4-.16.53-.24,1-.61,1.36-1.07.18-.25.33-.5.44-.77.06-.15.11-.3.15-.45.75.57,1.56.88,2.34.89.61,0,1.14-.21,1.52-.59l.09.14h0c2.31,3.49,4.71,5.46,6.38,6.51.04,9.8-1.07,16.25-1.41,18.01l-.06.33h10.22l-.08-.34c-1.86-7.76-2.78-23.36-2.86-24.62,1.89-3.38,3.65-7.01,5.25-10.79.05.05.1.1.14.15.68.65,1.67,1.02,2.71,1.02h.07c.93,0,1.89-.33,2.57-.86.43-.33.75-.73.91-1.15.31.38.75.89,1.43,1.28.6.34,1.26.49,1.96.43.2-.01.41-.05.62-.1.21-.05.42-.13.66-.23.49-.22.95-.53,1.37-.93.83-.78,1.37-1.76,1.53-2.75.13-.83,0-1.61-.39-2.26-.09-.15-.19-.3-.31-.45.11-.07.21-.15.32-.24.24-.18.44-.4.64-.62l.04-.05c.09-.1.18-.21.26-.33.09-.13.18-.27.27-.42l.05-.08c.07-.12.15-.25.21-.39.07-.17.15-.34.22-.53l.1-.28c.02-.08.04-.16.06-.24l.02-.07c.05-.2.09-.41.13-.63.14-1.02.07-2.01-.2-2.93-.13-.52-.33-.98-.56-1.47l-.02-.04s-.04-.09-.07-.14v-.02c.01-.25.02-.48.01-.71-.02-.77-.2-1.5-.52-2.18-.24-.51-.57-.96-.97-1.34h.08c.09-.02.18-.03.26-.04.36-.04.73-.15,1.08-.28.18-.07.35-.15.51-.23.08-.04.16-.09.25-.14.08-.05.15-.1.22-.15.59-.39,1.08-.94,1.42-1.61.13-.29.26-.61.31-.95.03-.16.05-.32.05-.48,0-.14,0-.3-.02-.49-.02-.18-.05-.33-.08-.48-.04-.16-.1-.31-.16-.46-.04-.11-.09-.22-.15-.33.09.01.18.03.27.04.33.04.63.05.94.05.17,0,.33-.02.49-.03.16-.02.33-.05.48-.08.35-.08.67-.19.95-.34.33-.17.63-.37.88-.6.14-.13.27-.27.39-.41.12-.15.23-.31.34-.48.45-.75.7-1.66.72-2.65.02-.94-.19-1.8-.63-2.54-.19-.31-.41-.58-.64-.81ZM437.36,396.35c-.02-.19-.05-.37-.1-.53.35.11.71.17,1.08.17.4,0,.8-.07,1.19-.2,1.02-.34,1.9-1.11,2.41-2.1.27-.49.45-1.07.51-1.67.06-.58,0-1.16-.17-1.68.16-.22.29-.45.41-.7.02,2.26.11,4.4.24,6.39v.2c.14,1.86.23,3.05.28,4.66-1.89-1.08-3.89-2.36-5.86-4.54ZM447.17,393.59c-.53-4.13-.97-10.44-1.29-18.77.4-.36.72-.81.96-1.35,0,0,0-.01,0-.02.39.58.96,1.08,1.71,1.53-.03.12-.06.24-.08.37-.05.02-.1.04-.15.07-.12.06-.24.12-.37.21-.47.3-.86.69-1.14,1.11-.55.83-.71,1.88-.45,2.88.25.97.89,1.83,1.72,2.31.61.36,1.33.53,2.04.47-.1.17-.19.36-.27.57-.09.25-.14.5-.15.74-.01.27.03.53.13.77.22.55.73.93,1.39,1.04.65.11,1.44-.04,2.22-.43,0,.33.04.65.12.95-3.11,5.36-5.55,7.08-6.39,7.55ZM459.41,366.86c-.5-.2-1.07-.31-1.64-.31-.17,0-.34,0-.51.03h-.02s-.04,0-.05,0l-.07-.02c.08-.06.17-.13.24-.2.1-.1.19-.21.27-.34.07-.12.12-.24.17-.37.02-.05.03-.11.04-.16.29-.12.56-.27.83-.46.17.76.45,1.4.82,1.87-.03-.01-.06-.02-.08-.04ZM462.81,368.51c-.34.24-.66.53-.97.89-.04-.14-.09-.27-.15-.4-.07-.16-.15-.31-.24-.47-.08-.13-.18-.26-.3-.42-.08-.09-.16-.18-.24-.27.25.05.46.05.64.03.26-.03.53-.12.78-.27.22-.12.42-.29.61-.48.18-.19.33-.4.44-.58.12.25.26.48.43.7.16.21.33.39.5.54.03.03.06.05.09.07-.56.09-1.09.31-1.59.66Z"/>
      <path class="cls-1" d="M2197.31,407.9c-.62.82-1.11,2.14-.48,3.03.4.56,1.13.91,2.24,1.05-.32.61-.49,1.29-.49,1.98,0,1.76,1.05,3.3,2.65,3.96-.13.28-.09.61.11,1,.51.99,2.23,1.44,3.66,1.71.25.05.49.07.75.07.76,0,1.48-.21,2.16-.42.27-.08.54-.16.82-.23.05.67.17,1.17.93,1.17.1,0,.22,0,.35-.03.19.58.86,1.15,2.81,1.15.57,0,1.08-.05,1.33-.08,1.07-.13,1.6-.7,2.11-1.25.25-.27.51-.55.84-.79.23-.16.35-.22.42-.24.02.12,0,.37,0,.53,0,.09-.01.18-.02.26-.05,1.09.62,1.72,2,1.88.15.02.3.03.44.03.48,0,.92-.1,1.39-.32.38-.17.63-.49.86-.77,0,0,0,0,0,0l.04.06.07-.08s.05.08.08.12c.32.51.67,1.02,1,1.51.18.27.36.53.54.8.07.1.14.2.2.3.19.28.38.55.52.83l.31.57.23.6c.3.76.43,1.59.56,2.46l.02.12c.06.32.12.64.18.96.1.58.21,1.17.33,1.77l.68,2.62c.15.56.29,1.14.43,1.7.06.25.12.49.18.75.04.14.08.28.11.41.07.27.15.54.24.83.16.4.32.8.47,1.19v.03c.2.34.23.66.26.99.03.31.06.62.21.95.27.58.47,1.15.57,1.68.07.4.09.86.12,1.29,0,.12.01.24.02.36,0,.19.02.4.04.62.02.34.05.74.06,1.14v2.28c-.02,1.88-.31,3.79-.54,5.04-.02.07-.03.15-.05.22-.02.11-.04.21-.07.3-.05.12-.1.24-.14.36l-.13.35c-.11.29-.21.56-.37.8-.07.12-.14.24-.2.35-.1.18-.2.35-.3.51l-.54.7c-.13.18-.28.38-.46.52l-.36.34-.64.57h19.63l-.55-.48c-.14-.12-.28-.25-.44-.4-.12-.12-.25-.25-.39-.38-.05-.05-.1-.1-.15-.15l-.16-.16s-.03-.04-.05-.06l-.83-.96c-.27-.33-.42-.69-.58-1.07-.16-.38-.32-.77-.61-1.19-.71-1-.95-2.1-1.19-3.27-.14-.66-.29-1.35-.53-2.04-.3-.77-.51-1.55-.69-2.24l-.08-.31c-.04-.23-.09-.45-.13-.66-.11-.54-.2-1.01-.23-1.42l-.1-.94c-.02-.2-.02-.41-.02-.62,0-.12,0-.24,0-.37-.03-.52.03-1.06.09-1.63.02-.15.03-.3.04-.43.23-1.52.68-3.01,1.32-4.41.94-2.02,2.1-3.85,3.42-5.42.96-.94,1.73-1.72,2.34-2.34l.17-.15c.12-.11.24-.21.38-.31.88-.73,1.84-1.42,2.77-2.08.55-.4,1.13-.81,1.69-1.23,1.84-1.39,3.11-2.56,4.13-3.79.14-.17.27-.34.41-.53.38-.42.74-.85,1.09-1.26l.18-.21c.06-.01.12-.03.17-.04h.03c.31-.14.61-.3.87-.49.79.4,1.76.62,2.82.62.87,0,1.78-.14,2.63-.41.52-.17.91-.48,1.29-.78.29-.23.56-.44.86-.56.26-.1.62-.03,1.01.07.19.05.39.1.59.12.88.1,1.68.02,2.37-.26.14.14.28.25.44.33.25.13.81.26,1.32.26s.81-.13.98-.3c.49.38,1.11.58,1.82.58.77,0,1.64-.24,2.37-.66,1.04-.59,1.5-1.29,1.37-2.07,1.8-.42,3.07-2.01,3.07-3.88,0-.13,0-.27-.03-.42,1.1-.75,1.74-1.97,1.74-3.3,0-.36-.05-.71-.14-1.05.66-.73,1.02-1.68,1.02-2.67,0-1.74-1.12-3.26-2.75-3.79.1-.36.15-.72.15-1.08,0-1.67-1.05-3.17-2.62-3.74-.66-.81-1.37-1.18-2.44-1.27h-.17c-.26-.04-.56-.06-.87-.06-.57,0-1.01.09-1.35.27-.08-.94-.45-2.07-.92-2.69-.41-.54-1.6-.97-2.64-.97-.64,0-1.14.17-1.43.49-.15.16-.24.35-.28.56-.17,0-.35.04-.5.11-.8-2.01-2.03-3-3.87-3.13-.21-.01-.54-.03-.96-.03-.64,0-1.55.04-2.4.23-.05-.14-.11-.29-.19-.45-.12-.26-.21-.52-.3-.79-.26-.78-.54-1.58-1.48-2.18-.89-.58-1.6-.82-2.36-.82-.34,0-.71.05-1.1.16,0-2.31-1.33-4-3.85-4.89-1.24-.44-2.18-.64-3.03-.64-1.12,0-2.05.35-2.84,1.07-.76-1.49-2.52-2.52-3.56-3.02-1.34-.65-2.94-1.01-4.5-1.01-1.68,0-3.24.4-4.49,1.16-.07.04-.14.08-.2.12-.34.19-.7.39-.8.95-.04.22.05.45.13.67.07.18.16.4.1.48-.07.08-.1.1-.1.1-.15-.04-.4-.66-.5-.9-.13-.32-.21-.51-.32-.63-.44-.46-1.34-.7-1.9-.47-.22.09-.35.2-.43.32-.21-.04-.43-.05-.64-.05-1.83,0-3.42,1.26-3.86,3-.94-.62-2.08-.96-3.26-.96-.83,0-1.61.16-2.35.49-1.13.5-1.98,1.44-2.41,2.66-.39,1.12-.41,2.39-.05,3.54-.65-.39-1.41-.63-2.21-.7-1.35-.12-2.61.38-3.51,1.38-.16.17-.31.47-.48.82-.16.32-.47.93-.64,1-.02,0-.04.01-.06.01-.13,0-.31-.15-.46-.28-.1-.08-.2-.17-.31-.23-.82-.51-1.66-.75-2.56-.75h-.05c-1.79.02-4.51,1.01-5.79,2.58-.71.87-1.06,2.14-.93,3.4.1.95.46,1.81,1,2.45-.98.21-1.99,1-2.29,1.85-.18.53-.09,1.03.26,1.46-.6.36-1,1.04-1.02,1.77-1.33.68-2.18,2.05-2.18,3.56,0,1.63.97,3.06,2.44,3.68ZM2245.38,418.13c.38.17.78.34,1.15.38,1.06.11,2.2-.13,3.35-.71,1.03-.51,1.74-1.06,2.14-1.64.44.8,1.14,1.42,1.98,1.77l-.73.73c-1.29,1.14-2.53,1.87-3.37,2.32-.11.07-.24.14-.38.22-.4.23-.89.51-1.43.87-.23.15-.46.31-.69.46-.52.35-1.06.71-1.62,1.11-.11.1-.21.19-.32.28l-.11-1.22c-.05-.66-.13-1.33-.21-2.05l-.2-1.84c-.04-.27-.06-.55-.06-.88.16.06.32.13.5.2ZM2229.9,425.32l-.03-.27c.16-2.15.57-4.35.92-6.04l.04-.02h0c.5-.31.92-.7,1.24-1.18.75.88,1.86,1.4,3.03,1.4.91,0,1.78-.31,2.49-.87.75.77,1.78,1.21,2.86,1.21,1.01,0,1.96-.38,2.7-1.06.09-.03.17-.07.24-.12.08.82.07,1.67.03,2.47-.05.93-.13,2.03-.27,3.15-.03.33-.09.66-.14.98-.03.19-.06.37-.09.54-.03.16-.07.33-.11.49-.1.11-.2.22-.3.33-.79.89-1.59,1.91-1.94,2.38l-.13.18c-.5.66-1.01,1.5-1.54,2.39-.4.67-.81,1.35-1.26,2.02-.51.77-1.11,1.46-1.72,1.98-.27.19-.57.37-.92.56-.5.04-1.05-.08-1.56-.35-.78-.42-1.5-1.19-2.08-2.22-.96-1.73-1.52-4-1.55-6.38.04-.28.09-.63.1-.91v-.26c0-.13,0-.26-.02-.38ZM2225.17,419.66c.15.02.33.06.5.1.37.09.76.17,1.03.09.29-.09.51-.28.67-.56.49.19,1,.28,1.55.26l-.27.72c-.08.23-.15.46-.21.68-.03.11-.06.22-.1.33-.38,1.27-.68,2.3-.91,3.11-.23-.49-.47-.96-.71-1.46-.18-.36-.36-.73-.55-1.12-.33-.67-.76-1.28-1.16-1.82.07-.1.12-.21.16-.33Z"/>
      <path class="cls-1" d="M243.08,391.77c-.54.72-.97,1.88-.42,2.67.35.5,1,.8,1.97.93-.28.54-.43,1.13-.43,1.75,0,1.55.92,2.91,2.33,3.48-.11.25-.08.54.1.88.45.88,1.96,1.27,3.23,1.51.22.04.43.06.66.06.67,0,1.3-.19,1.91-.37.23-.07.48-.14.72-.2.05.59.15,1.03.82,1.03.09,0,.19,0,.31-.02.17.51.76,1.01,2.48,1.01.5,0,.95-.04,1.17-.07.95-.11,1.41-.61,1.86-1.1.22-.24.45-.48.74-.69.2-.14.31-.19.37-.21.02.1,0,.32,0,.46,0,.08-.01.15-.02.23-.05.96.55,1.52,1.76,1.66.13.02.26.02.38.02.42,0,.81-.09,1.22-.28.33-.15.56-.43.76-.68,0,0,0,0,0,0l.03.05.06-.07s.05.07.07.11c.28.45.59.9.88,1.33.16.23.32.47.48.7.06.09.12.18.18.27.17.25.33.48.46.73l.28.5.2.53c.26.67.38,1.4.5,2.16l.02.1c.05.28.1.57.15.85.09.51.19,1.03.29,1.56l.6,2.3c.13.49.26,1.01.38,1.5.05.22.1.43.16.66.04.12.07.24.1.36.06.24.13.48.21.73.14.35.28.7.41,1.04v.03c.17.3.2.58.23.88.03.27.06.55.19.83.24.51.41,1.01.5,1.48.06.35.08.75.1,1.14,0,.11.01.21.02.31,0,.17.02.35.03.55.02.3.04.65.06,1.01v2.01c-.02,1.66-.27,3.34-.47,4.44-.02.07-.03.13-.04.2-.02.1-.04.19-.06.26-.04.11-.08.21-.13.32l-.12.31c-.1.25-.19.49-.33.71-.06.11-.12.21-.18.31-.09.16-.17.31-.26.45l-.48.62c-.11.16-.25.33-.4.46l-.31.3-.56.5h17.28l-.49-.42c-.12-.11-.25-.22-.38-.35-.11-.11-.22-.22-.34-.33-.04-.04-.09-.09-.13-.13l-.14-.14s-.03-.03-.04-.05l-.73-.85c-.24-.29-.37-.61-.51-.94-.14-.33-.28-.68-.54-1.05-.63-.88-.83-1.85-1.05-2.88-.12-.58-.25-1.19-.47-1.8-.27-.68-.45-1.37-.61-1.97l-.07-.27c-.04-.2-.08-.39-.11-.58-.1-.48-.18-.89-.2-1.25l-.09-.83c-.01-.18-.01-.36-.01-.55,0-.1,0-.21,0-.33-.03-.46.02-.93.08-1.44.01-.13.03-.26.04-.38.2-1.34.6-2.65,1.16-3.89.83-1.78,1.85-3.39,3.02-4.77.85-.83,1.53-1.51,2.06-2.06l.15-.13c.11-.09.21-.19.33-.28.78-.64,1.62-1.25,2.44-1.83.49-.35.99-.71,1.48-1.08,1.62-1.22,2.74-2.25,3.64-3.34.12-.15.24-.3.36-.47.33-.37.65-.75.96-1.11l.16-.19c.05-.01.1-.02.15-.04h.03c.28-.12.53-.26.77-.43.7.36,1.55.54,2.49.54.77,0,1.57-.13,2.32-.36.46-.15.8-.42,1.13-.68.25-.2.49-.39.76-.5.23-.09.55-.03.89.06.17.04.35.09.52.11.78.09,1.48.01,2.09-.23.12.13.25.22.39.29.22.11.71.23,1.17.23s.72-.12.86-.26c.43.33.98.51,1.6.51.68,0,1.44-.21,2.09-.58.92-.52,1.32-1.13,1.21-1.82,1.58-.37,2.7-1.77,2.7-3.42,0-.12,0-.24-.02-.37.97-.66,1.54-1.73,1.54-2.9,0-.31-.04-.62-.12-.93.58-.65.9-1.48.9-2.35,0-1.53-.99-2.87-2.43-3.34.09-.31.13-.63.13-.95,0-1.47-.92-2.79-2.3-3.3-.58-.72-1.21-1.04-2.15-1.11h-.15c-.23-.03-.49-.05-.77-.05-.5,0-.89.08-1.19.24-.07-.83-.4-1.83-.81-2.37-.36-.47-1.41-.85-2.32-.85-.56,0-1,.15-1.26.43-.13.14-.21.3-.25.49-.15,0-.31.04-.44.1-.7-1.77-1.79-2.65-3.41-2.76-.18-.01-.48-.03-.84-.03-.56,0-1.36.04-2.11.2-.05-.12-.1-.25-.17-.4-.1-.22-.18-.46-.26-.69-.23-.68-.47-1.39-1.3-1.92-.79-.51-1.41-.73-2.08-.73-.3,0-.62.05-.97.14,0-2.04-1.17-3.52-3.39-4.31-1.09-.39-1.92-.56-2.66-.56-.98,0-1.81.31-2.5.94-.67-1.31-2.22-2.22-3.13-2.66-1.18-.57-2.59-.89-3.96-.89-1.48,0-2.85.35-3.95,1.02-.06.04-.12.07-.18.1-.3.17-.61.35-.7.84-.04.2.04.4.12.59.06.16.14.35.08.42-.06.07-.09.09-.09.09-.13-.04-.36-.58-.44-.79-.12-.29-.19-.45-.28-.55-.39-.41-1.18-.62-1.68-.42-.19.08-.3.18-.38.28-.19-.03-.38-.05-.57-.05-1.61,0-3.01,1.11-3.4,2.65-.83-.55-1.83-.84-2.87-.84-.73,0-1.42.14-2.07.43-.99.44-1.75,1.27-2.12,2.34-.35.99-.36,2.1-.05,3.12-.58-.34-1.24-.55-1.94-.61-1.19-.1-2.3.34-3.09,1.21-.14.15-.27.42-.43.72-.15.29-.42.82-.56.88-.02,0-.04.01-.06.01-.11,0-.27-.13-.41-.24-.09-.07-.18-.15-.27-.21-.72-.45-1.46-.66-2.25-.66h-.05c-1.57.02-3.97.89-5.1,2.27-.63.76-.93,1.88-.82,3,.09.83.4,1.59.88,2.16-.86.18-1.75.88-2.02,1.63-.16.46-.08.91.23,1.28-.53.31-.88.92-.9,1.56-1.17.6-1.92,1.81-1.92,3.13,0,1.44.85,2.7,2.15,3.24ZM285.42,400.78c.34.15.69.3,1.01.33.94.09,1.94-.12,2.95-.62.9-.45,1.54-.93,1.88-1.44.38.7,1.01,1.25,1.75,1.56l-.64.64c-1.14,1.01-2.23,1.64-2.96,2.04-.1.06-.21.13-.34.2-.35.2-.78.45-1.26.77-.2.13-.4.27-.61.41-.46.31-.93.62-1.42.98-.1.08-.19.17-.28.25l-.1-1.07c-.04-.58-.11-1.17-.18-1.81l-.18-1.62c-.03-.24-.05-.49-.06-.78.14.05.29.11.44.18ZM271.79,407.11l-.02-.24c.14-1.9.5-3.83.81-5.32l.04-.02h0c.44-.27.81-.62,1.1-1.03.66.78,1.64,1.23,2.67,1.23.8,0,1.57-.27,2.19-.77.66.68,1.56,1.06,2.51,1.06.89,0,1.73-.33,2.38-.93.08-.03.15-.06.21-.1.07.72.06,1.47.02,2.17-.05.82-.11,1.79-.24,2.77-.03.29-.08.58-.13.87-.03.16-.06.33-.08.47-.03.14-.06.29-.09.43-.09.09-.18.19-.27.29-.7.79-1.4,1.69-1.71,2.1l-.11.16c-.44.58-.89,1.32-1.36,2.11-.35.59-.72,1.19-1.11,1.78-.45.67-.98,1.28-1.51,1.74-.24.17-.5.33-.81.49-.44.04-.93-.07-1.38-.31-.69-.37-1.32-1.04-1.83-1.96-.85-1.53-1.33-3.52-1.37-5.62.04-.25.08-.55.09-.8v-.23c0-.12,0-.23-.02-.34ZM267.62,402.12c.13.02.29.05.44.09.33.08.67.15.91.08.25-.08.45-.24.59-.5.44.17.88.25,1.36.23l-.23.63c-.07.2-.13.4-.19.6-.03.1-.06.19-.09.29-.34,1.12-.6,2.02-.8,2.74-.2-.43-.41-.85-.63-1.29-.16-.32-.32-.65-.48-.98-.29-.59-.67-1.12-1.02-1.6.06-.09.1-.19.14-.29Z"/>
      <path class="cls-1" d="M43.36,438.25c.45.3,1,.49,1.63.56.24.03.55.04.88.03.11,0,.21-.01.32-.02-.22.45-.32.92-.31,1.37.01.49.16.95.43,1.36.15.22.33.41.5.56.19.15.4.3.64.4.25.13.54.2.81.27.14.03.29.05.45.07l.23.02c.07,0,.14,0,.21,0h.14c1.24,0,2.73-.45,3.89-1.18.26-.15.53-.35.82-.59.25-.2.48-.43.67-.66.26-.3.47-.61.62-.93.15.18.35.37.61.52.24.14.52.25.8.31l.17.04c.06.02.13.03.19.04.13.02.26.04.4.04.72,0,2-.41,2.72-2.96.77.52,1.61.78,2.53.78.46,0,.94-.07,1.41-.21h.03c.71,1.67,1.41,3.39,2.09,5.05,1.31,3.21,2.44,5.97,3.1,7.21.42.78-.47,6.4-1.55,15.2h-.04,8.63-.04c-.99-8.23-1.9-20.53-2.5-32.5v-.03c.06-.04.12-.07.17-.11.05-.04.11-.08.16-.12.52.53,1.13.93,1.8,1.15,1.02.34,2.18.3,3.18-.12.94-.39,1.73-1.09,2.23-1.96.38-.68.59-1.43.6-2.2.6.46,1.41.81,2.15.69.41-.07.99-.31,1.39-1.09.32-.6.47-1.42.46-2.43.97.45,1.98.57,2.94.35,1.21-.28,2.06-1.02,2.56-1.59.62-.71,1.08-1.58,1.27-2.45.05-.21.08-.42.1-.63.05-.02.09-.05.14-.08.2-.12.39-.26.63-.46.05-.04.1-.08.15-.13.35.08.68.14.99.16.12,0,.24.01.36.01.54,0,1.05-.09,1.52-.28.72-.28,1.36-.77,1.89-1.46.55-.71.88-1.46.99-2.24.06-.4.05-.8-.02-1.2.22-.16.44-.35.64-.56.27-.28.51-.64.78-1.14.2-.41.36-.85.47-1.31.08-.41.11-.82.08-1.21-.07-.76-.32-1.4-.74-1.97-.14-.18-.29-.36-.47-.54.01-.1.03-.2.04-.31.01-.16,0-.31,0-.44v-.07c0-.16-.02-.33-.04-.49-.02-.15-.05-.28-.08-.41l-.02-.08c-.08-.3-.15-.54-.24-.74.21-.23.39-.48.54-.74.29-.54.46-1.08.5-1.58.03-.26.04-.55.02-.82-.03-.27-.07-.53-.14-.8-.12-.43-.3-.85-.55-1.24,0-.04,0-.07,0-.1.03-.28,0-.55-.01-.81-.02-.25-.05-.49-.1-.73-.02-.11-.04-.22-.07-.33-.03-.11-.07-.21-.11-.31-.07-.2-.16-.39-.25-.57-.09-.17-.19-.34-.3-.49-.11-.16-.24-.29-.37-.43-.25-.25-.52-.47-.82-.65-.33-.2-.71-.37-1.16-.49-.22-.27-.51-.48-.86-.62-.21-.09-.45-.16-.73-.2.14-.2.25-.41.36-.63.12-.29.22-.59.28-.91.03-.15.05-.31.07-.48.01-.14.01-.29,0-.46-.01-.3-.05-.61-.12-.93-.08-.28-.18-.57-.31-.86l-.02-.04c-.06-.12-.12-.25-.19-.37-.08-.13-.16-.25-.25-.37-.16-.22-.35-.47-.58-.69-.51-.47-.97-.78-1.43-.97-.3-.13-.55-.22-.79-.28-.27-.06-.54-.1-.79-.12-.51-.05-1.03.02-1.56.18-.24.08-.48.17-.71.29-.04.02-.08.04-.11.06.01-.24.01-.51-.03-.79-.04-.29-.12-.55-.23-.79-.12-.26-.29-.5-.49-.68-.21-.21-.47-.36-.81-.46-.16-.05-.33-.08-.49-.09-.18-.02-.38,0-.57.03-.23.04-.47.1-.71.19-.44-.45-.98-.8-1.63-1.04-.66-.24-1.29-.34-1.9-.29-.04-.02-.07-.05-.11-.07-.27-.14-.54-.24-.81-.32-.25-.07-.55-.15-.84-.18-.23-.02-.47-.04-.72-.04h-.13c-.14,0-.28.01-.43.02-.14.02-.28.04-.41.07-.27.05-.53.11-.79.19-.25.07-.47.17-.69.27l-.06.03c-.23.11-.45.23-.65.36-.13.08-.25.17-.36.26-.63-.38-1.36-.58-2.12-.58h-.09c-.53.02-1.04.13-1.53.33-.14-.04-.29-.09-.46-.12-.18-.03-.36-.05-.54-.06-.39-.02-.8.01-1.23.09-.43.11-.88.27-1.32.5-.21.1-.42.23-.65.39-.1.07-.19.14-.28.21-.49,0-.94.2-1.35.58-.15.14-.28.28-.39.44-.13.18-.25.37-.35.58-.17.33-.32.71-.44,1.14-.35-.31-.73-.55-1.16-.74-.24-.11-.5-.18-.83-.24-.31-.05-.6-.07-.84-.05-1.07.05-2.17.56-3.02,1.4-.65.64-1.14,1.45-1.37,2.26-.37.11-.73.26-1.07.46-.23.12-.45.29-.65.44-.12.09-.22.17-.32.26l-.3.29c-.44.44-.8.94-1.04,1.42-.04.07-.07.14-.11.22-.13.11-.26.23-.41.39-.14.15-.27.32-.39.49-.14.19-.24.4-.34.6-.09.18-.19.42-.28.69-.07.25-.13.51-.18.77v.05c-.03.12-.05.25-.06.36,0,.13-.01.26-.02.38,0,.19,0,.37.01.55-.04.03-.08.05-.11.08-.26.2-.49.42-.7.66-.23.27-.42.55-.58.86-.17.33-.29.68-.38,1.07-.09.39-.12.79-.1,1.28.09,1.62.79,2.8,2.09,3.51.55.3,1.2.52,2.03.68.03.28.08.54.17.8,0,.02.02.05.02.07-1.18,1.32-1.56,2.93-1.06,4.46.14.44.35.86.64,1.26.28.38.61.72,1,1.01.6.45,1.3.75,2.05.88-.16.15-.33.33-.49.53-.04.06-.09.11-.12.17-1.15-.38-2.47-.2-3.6.5-.74.45-1.37,1.08-1.78,1.78-.27.45-.43.91-.46,1.32h-.02c-.38-.27-.9-.62-1.55-.86-.59-.22-1.16-.29-1.74-.22-.73.08-1.44.39-2.11.92-.19.15-.36.3-.51.45-.07.07-.16.17-.24.26l-.25.29c-.37.44-.66.91-.86,1.37-.36.82-.45,1.64-.25,2.37.17.59.51,1.11,1.03,1.54.25.21.53.39.86.56-.42.2-.78.47-1.07.79-.43.48-.7,1.06-.77,1.69-.06.46-.01.95.14,1.42-.6.47-1.36,1.19-1.9,2.18-.56,1.02-.73,1.96-.52,2.79.17.63.54,1.14,1.1,1.51ZM65.92,437.22c.64-.44,1.22-1,1.65-1.61.82.28,1.66.37,2.39.27.35-.04.69-.14,1.04-.29-.42,4.18-.8,7.66-.99,9.33-.9-2.06-2.32-4.62-4.2-7.63.04-.02.07-.04.11-.07Z"/>
      <path class="cls-1" d="M408.22,364.78c0-.07-.01-.14-.02-.22-.07-.45-.19-.87-.36-1.23-.15-.34-.37-.68-.66-1.05-.27-.31-.55-.57-.84-.76-.31-.21-.6-.35-.88-.43-.06-.05-.12-.1-.18-.15.25-.32.55-.74.77-1.26.22-.52.32-1.05.29-1.59-.04-.67-.28-1.31-.72-1.91-.12-.16-.24-.31-.36-.45-.13-.13-.26-.25-.38-.36-.24-.21-.52-.38-.82-.51-.26-.12-.55-.2-.85-.24-.28-.03-.55-.03-.83,0-.49.07-.99.23-1.54.5-.2.1-.41.21-.63.35-.04-.02-.08-.04-.12-.06.04-.27.05-.53.05-.77-.01-.48-.11-.95-.3-1.39-.16-.38-.4-.74-.74-1.1-.35-.33-.69-.56-1.04-.72-.19-.08-.38-.16-.59-.22-.2-.05-.4-.09-.6-.11-.31-.04-.64-.02-1,.04-.34-.36-.76-.66-1.26-.91-1.42-.72-2.83-.73-3.98-.06-.29.17-.56.38-.83.64-.08-.12-.16-.23-.24-.32-.15-.18-.33-.35-.52-.5-.15-.11-.32-.22-.49-.31.19-.26.34-.53.45-.82.31-.75.39-1.6.24-2.52-.14-.91-.5-1.73-1.03-2.39-.23-.28-.5-.52-.81-.74-.27-.18-.58-.34-.91-.45-.56-.2-1.22-.28-1.92-.25-.42.02-.82.08-1.18.14.22-.36.39-.72.53-1.09.2-.57.29-1.11.28-1.62,0-1.01-.38-2-1.06-2.78-.65-.76-1.59-1.31-2.55-1.51-.26-.06-.54-.09-.82-.09-.24-.61-.61-1.19-1.11-1.74-.42-.46-.93-.87-1.48-1.2-.53-.31-1.07-.52-1.6-.64-.98-.22-1.97-.13-2.77.26-.31.15-.59.34-.85.57-.39-.19-.82-.32-1.27-.37-.93-.11-1.96.1-2.86.57-.84-.19-1.73-.13-2.55.16-.96.35-1.8.99-2.35,1.8-.11.17-.22.35-.32.54-.91-.21-1.79-.14-2.54.22-.56.25-.94.58-1.2,1.02-.12.2-.22.44-.31.72-.36.63-.54,1.44-.55,2.42-.7-.3-1.41-.43-2.13-.37-.13-.05-.26-.08-.37-.11-.48-.13-.98-.16-1.58-.09-.27.03-.52.1-.76.17-.22.07-.47.16-.71.29-.5.27-.89.56-1.2.89-.17.18-.33.37-.48.57-.14.2-.26.41-.36.64-.11.24-.2.46-.26.68-.06.23-.11.48-.13.72-.03.27-.03.54,0,.81-.45-.26-1.01-.46-1.55-.46-.23,0-.45.04-.65.11-.27.08-.52.24-.73.47-.24.26-.41.54-.51.86-.11.35-.17.71-.18,1.1-.47.19-.88.49-1.24.89-.2.02-.4.05-.59.09-.09-.12-.18-.24-.28-.36-.26-.29-.52-.52-.8-.67-.26-.14-.52-.22-.78-.23h-.04c-.22,0-.44.05-.65.15-.35.18-.65.51-.86.97-.07.14-.12.29-.17.45-.37-.47-.84-.84-1.38-1.07-.75-.32-1.62-.38-2.42-.14-.43.14-.8.34-1.12.59-.37.31-.65.64-.84.99-.23.43-.37.87-.42,1.34-.03.28-.03.58-.01.88-.24-.19-.47-.35-.69-.5-.52-.34-1-.56-1.46-.67-.27-.07-.54-.1-.82-.1-.29,0-.57.04-.83.12-.29.09-.57.22-.85.39-.27.18-.54.41-.8.69-.48.55-.77,1.14-.86,1.74-.09.49-.04,1.02.13,1.57.18.57.46,1.05.68,1.4-.36,0-.76.11-1.14.3-.17.08-.32.17-.47.26-.15.1-.3.22-.44.34-.16.14-.3.28-.42.41-.13.15-.25.31-.35.48-.48.72-.7,1.57-.62,2.39.04.43.19.87.41,1.28.02.04.05.08.07.11,0,.18,0,.34.01.5.01.13.03.26.06.39-.11.05-.23.11-.33.17-.17.09-.33.2-.48.31-.13.1-.25.22-.35.34-.2.24-.33.48-.39.72-.05.23-.05.47.01.7.12.48.49.83.78,1.05.11.08.24.16.38.24,0,.02-.02.04-.02.05-.14.08-.28.17-.41.26-.33.24-.61.54-.84.89-.13.2-.22.38-.3.55-.08.19-.14.39-.18.58-.09.38-.11.79-.05,1.27.02.24.1.47.15.65.07.22.16.42.27.61.12.19.25.38.39.54.02.02.04.04.06.07-.02.24-.03.48-.01.71.05.53.16.94.33,1.3.22.47.48.84.79,1.13.09.09.19.18.31.26-.11.54-.07,1.09.13,1.68.1.24.22.49.38.73-.08.14-.14.28-.19.42-.1.27-.17.55-.21.84-.02.16-.03.31-.02.47,0,.16.03.32.06.47.06.34.17.67.33,1,.15.28.36.65.67,1,.17.19.31.33.44.45.15.13.3.24.45.34.34.24.69.37.92.45.26.09.54.14.89.16.28.01.55,0,.8-.05.54-.1.98-.29,1.27-.42.11-.05.2-.1.29-.14,0,.39.11.83.33,1.27.35.7.95,1.37,1.65,1.82.72.46,1.54.72,2.32.72.09,0,.19,0,.28-.01.51-.05.96-.18,1.36-.41.23-.12.43-.26.63-.43.09-.08.17-.16.25-.24.31.74.72,1.32,1.19,1.67.24.18.5.31.79.37.25.05.51.04.75-.03.22-.06.42-.17.62-.32.16-.13.32-.29.47-.49.11-.14.2-.3.29-.47.11.18.23.35.36.51.26.31.58.57.98.8.59.33,1.25.5,1.92.5.2,0,.41-.02.6-.05.4-.05.83-.2,1.29-.43.45-.26.8-.55,1.06-.88.16-.2.29-.39.41-.6.12-.22.21-.45.29-.69.1-.29.16-.61.18-.95.21.21.44.42.68.61.49.39.96.66,1.43.82.6.2,1.2.23,1.75.1.35-.08.67-.19.96-.35.29-.15.55-.33.78-.53v.03s.07-.06.07-.06c2.59,6.99,5.13,13.57,5.39,14.24-.44,7-2.19,16.11-2.93,19.71l-.07.33h9.37l-.02-.29c-.04-.67-.08-1.45-.13-2.32-.28-5.06-.71-12.71-.86-20.45.23-2.87,2.68-8.58,4.22-11.92.19.13.39.24.59.33.44.18.92.28,1.44.3h.03c.31,0,.62-.03.94-.1-.16.3-.29.57-.39.84-.24.6-.36,1.13-.37,1.61,0,.29.02.58.08.86.06.28.17.56.32.85.32.59.83,1.11,1.52,1.54.34.2.69.36,1.06.48.33.09.66.14.99.15.58,0,1.12-.14,1.61-.39.58-.29,1.02-.68,1.35-.96.02.09.06.19.1.29.12.28.31.57.55.86.26.29.56.54.9.77.41.26.79.44,1.16.56.4.14.84.22,1.35.24h.02c.53,0,.96-.07,1.35-.21.24-.08.45-.18.65-.29.21-.13.41-.27.58-.43.26-.23.5-.53.7-.88.5.65,1.04,1.1,1.6,1.32.28.12.56.17.86.15.27-.01.51-.09.73-.22.38-.22.67-.59.85-1.06.07-.19.13-.37.16-.54.47.45,1.04.76,1.66.91.1.03.21.05.33.07.11.01.21.02.32.03.22.01.43,0,.66-.01.19-.02.4-.06.66-.13.26-.07.46-.14.64-.24.2-.1.4-.21.59-.34.17-.12.34-.27.52-.44.31-.29.58-.69.8-1.17.19-.46.29-.95.3-1.45,0-.32-.03-.65-.1-.98.26.13.55.27.85.38.28.11.54.19.79.24.28.06.56.09.82.09h.07c.57,0,1.12-.15,1.65-.45.27-.16.54-.37.81-.65.25-.26.48-.57.72-.97.23-.43.37-.78.45-1.11.03-.14.06-.27.08-.41.05-.14.09-.28.11-.41.05-.26.07-.55.05-.86-.02-.27-.07-.54-.15-.82-.04-.14-.09-.29-.15-.43.15,0,.31-.02.45-.05.19-.03.36-.07.52-.12.18-.06.36-.13.53-.2.34-.14.7-.37,1.14-.72.16-.14.33-.3.52-.49.15-.15.29-.32.44-.53.14-.19.25-.36.34-.53.09-.18.18-.36.24-.54.13-.32.21-.69.25-1.07.04-.4,0-.77-.06-1.01-.03-.15-.07-.31-.12-.46-.05-.15-.11-.29-.18-.43-.13-.26-.28-.51-.47-.75-.22-.27-.47-.53-.77-.78.1-.04.2-.08.3-.12.28-.13.53-.3.74-.48.23-.2.43-.43.58-.65.16-.23.3-.48.41-.77.4-1,.38-2.19-.04-3.25-.27-.67-.69-1.27-1.23-1.73ZM362.68,391.16c-.99-1.83-3.3-5.89-5.21-9.26.03-.05.05-.1.07-.15.06-.15.12-.3.16-.45.16-.52.18-1.08.07-1.67-.09-.49-.27-.91-.44-1.26-.05-.1-.1-.2-.14-.29.09,0,.19,0,.3-.02.24-.04.6-.12.97-.32.37-.2.7-.43.97-.68.19-.17.32-.32.45-.46.03-.04.07-.09.11-.14.1-.08.19-.17.27-.25,0,0,0,.02,0,.03.15.47.36,1.12.75,1.76.33.54.76.98,1.3,1.33.13.08.29.18.47.26.17.07.35.13.54.18.19.05.39.09.6.12.04,0,.09.01.13.02h.06c-.58,5.11-1.18,9.49-1.43,11.26ZM369.68,379.76c.03.22.07.43.13.63.06.23.16.43.25.62.05.11.12.23.19.34-1.58,2.6-3.01,5.28-3.72,6.62-.1-1.82-.21-4.61-.33-8.31.25-.09.48-.19.68-.31.15-.08.29-.18.43-.29.12-.1.24-.21.36-.34.21-.23.4-.48.56-.77.27-.48.48-1.05.61-1.77.02-.1.04-.2.05-.31,0,0,0,0,.01.01.25.35.64.62,1.11.77.19.06.37.1.54.12-.14.16-.26.33-.37.51-.23.4-.39.79-.46,1.18-.09.47-.1.9-.04,1.28Z"/>
      <path class="cls-1" d="M1561.21,394.06c.07-.2.14-.39.24-.52.13-.15.26-.28.37-.39.54-.54.81-.93.12-1.84-.07-.18-.18-.31-.29-.42-.11-.12-.21-.23-.26-.43-.04-.11-.01-.32.01-.5.03-.25.06-.51,0-.72-.24-.97-1.19-1.59-2.33-1.44-.28.04-.52.13-.76.21-.45.16-.85.28-1.35.03-.39-.17-.59-.52-.81-.92-.16-.28-.32-.58-.58-.84-.48-.42-.96-.62-1.46-.62-.55,0-1.02.24-1.48.47-.43.22-.84.42-1.28.42-.03,0-.07,0-.09,0-.38-.04-.54-.31-.77-.75-.21-.39-.44-.84-.96-1.03h-.04c-.16-.05-.32-.06-.49-.05-.64-.81-1.61-1.29-2.65-1.29-.8,0-1.57.29-2.18.81-.32-.14-.65-.28-.98-.42-.59-.25-1.2-.51-1.78-.74-1.91-.68-3.39-.3-4.37,1.11-.11.15-.2.33-.3.58-.35-.03-.7,0-1.06.11-1.22.36-1.98,1.16-2.22,2.33-.36-.34-.86-.56-1.37-.56-.34,0-.65.1-.9.29-.15-.14-.32-.24-.49-.31h0s0-.44,0-.44c.01-1.67.2-3.36.4-4.94l.11-.94h.03s0-.05,0-.05c.45-.32.84-.71,1.16-1.16.23.05.46.08.7.08.59,0,1.17-.17,1.64-.47.9.96,2.11,1.5,3.34,1.5.76,0,1.52-.21,2.21-.61.51.73,1.46.82,2.16.82.29,0,.59-.02.84-.03l.59-.03-.07-.32c-.1-.42-.04-.44.26-.51.23-.06.53-.13.73-.44.23-.37.17-.74.11-1.01-.07-.36-.08-.42.37-.52.26-.05.68.07,1.11.22.56,1.16,1.74,1.9,3.03,1.9,1.38,0,2.61-.84,3.12-2.11,1.75-.02,3.19-1.38,3.32-3.1,1.73-.14,3.1-1.59,3.1-3.35,0-.8-.29-1.57-.81-2.18.01-.08.03-.16.04-.24.49-.6.76-1.36.76-2.13,0-.4-.07-.79-.21-1.16.94-.62,1.51-1.68,1.51-2.81,0-.85-.31-1.64-.87-2.26.46-.59.71-1.31.71-2.06,0-1.52-1-2.83-2.45-3.24-.08-.24-.18-.46-.28-.68-.17-.36-.32-.69-.37-1.06-.16-1.47-.95-4.24-2.76-4.24-.48,0-.99.2-1.52.61-.81-1.1-1.64-1.79-3.06-1.9-.66-.08-1.91,0-2.68.44-.78-.5-1.68-.77-2.61-.77-.28,0-.56.02-.84.07-.39-.31-.83-.35-1.24-.11-.16-.99-.64-2.09-2.19-2.33-.13-.02-.27-.04-.4-.04-.66,0-1.16.3-1.64.59-.25.15-.49.29-.74.39-.29-1.07-.52-1.92-1.89-2.39-.39-.19-.93-.3-1.46-.3-.45,0-1.07.08-1.53.46-.42.37-.53.84-.61,1.16-.02.09-.05.2-.07.26-.06-.01-.21-.07-.54-.3-.57-.46-.87-.67-1.2-.67-.36,0-.59.24-.99.69-1.25-1.5-2.47-2.11-4.14-2.11-.13,0-.25,0-.37.01-1.8,0-3.29.64-4.14,1.77-.38-.12-.81-.19-1.27-.21-.16,0-.31,0-.46,0-1.6,0-3.48.33-4.03,2.81-.11-.03-.22-.05-.33-.05-.57,0-1.11.39-1.64.77-.4.29-.82.59-1.14.59h0c-.21-.01-.49-.37-.74-.68-.24-.31-.49-.62-.78-.78-.59-.31-1.78-.52-2.39-.4-1.21.24-1.45,1.21-1.62,1.91-.18.73-.29,1.01-.78,1.01-.06,0-.12,0-.18-.01-.58-.07-1.13-.31-1.72-.56-.73-.31-1.48-.64-2.33-.64-.33,0-.67.05-.99.15-1.31.41-2.43,1.76-2.95,3.51-.42,1.45-.33,2.84.23,3.84-.19.04-.35.13-.46.27-.06.08-.12.18-.16.33-.24-.1-.48-.15-.72-.15-1.02,0-1.67.89-1.85,1.71-.14.65,0,1.25.35,1.69-.47.1-.87.38-1.18.82-.89,1.24-.87,3.44-.52,4.48.15.44.37.8.67,1.09-.02.18-.03.33-.03.48,0,.32.03.64.1.97-.41.11-.77.3-1.02.53-.6.57-1.34,2.18-1.06,3.29.09.37.29.66.58.85-.52.61-.67,1.55-.3,2.25.62,1.18,1.94,1.2,3.01,1.21.09,0,.17,0,.25,0,0,.35.1.68.31,1,.63.92,2.06,1.42,2.86,1.53.26.04.52.04.8,0,.27.47.65.82,1.13,1.03.57.26,1.19.37,1.93.37.43,0,.85-.04,1.28-.08.21-.02.35-.06.46-.08.19-.05.28-.06.5,0,.08.02.16.1.25.2.13.13.3.3.55.38.25,1.08,1.53,1.7,3.55,1.7.93,0,1.91-.14,2.54-.37.25.39.71.58,1.2.5.04.3.17.56.37.78.51.55,1.39.67,2.04.67,1.27,0,2.65-.43,3.21-1,.18-.18.32-.4.43-.68.35.2.72.36,1.11.48l.04.06h0c.23.38.4.74.52,1.12.15.39.28.79.42,1.2.07.22.15.44.23.66.22.63.46,1.23.7,1.84.18.45.36.88.53,1.31.54,1.32,1.04,2.56,1.43,3.69h-.02s.05.1.05.1c-.64.46-1.92,1.42-2.03,2.47-.04.41.09.79.39,1.13.08.1.18.18.29.25.18,1.68,1.1,2.75,2.47,2.91l.03.39c.11,1.42.23,2.88.28,4.33l.15,3.28c.01.28.02.55.04.82.04.82.08,1.6.04,2.39l-.09,5.44-.09,6.22c0,1.27-.38,3.2-.58,4.23-.06.32-.11.55-.12.66l-.28,1.49c-.07.32-.15.63-.23.95-.05.18-.09.37-.14.54-.08.31-.17.62-.27.91-.05.17-.11.35-.15.51-.1.29-.22.58-.33.86-.07.16-.13.32-.19.47l-.58,1.24-.28.55h12.15l-.29-.43c-.05-.07-.1-.14-.15-.21-.14-.21-.29-.42-.42-.65l-.62-1.11c-.73-1.29-.94-2.52-1.21-4.08-.04-.22-.08-.44-.12-.67-.04-.21-.08-.41-.12-.62-.27-1.38-.52-2.69-.05-5.08.29-1.43.74-2.83,1.34-4.15.3-.7.68-1.38,1.04-2.01l1.25-1.99c.68-1.01,1.4-2.03,2.1-3.02.42-.58.83-1.17,1.24-1.75l.59-.69c.14-.17.3-.36.46-.59h.03c.33.11.65.16.98.16,1.27,0,2.42-.72,2.99-1.84.14.11.31.21.52.24.09.01.17.02.25.02.55,0,.76-.33.91-.57.1-.15.18-.29.35-.36.06-.03.26-.12.33-.12h0s.09.07.15.11c.1.09.25.21.47.36.5.33,1.02.49,1.57.49.96,0,1.84-.48,2.7-.95.48-.26.94-.51,1.38-.66.46-.15,1-.26,1.57-.36.23-.04.47-.09.7-.14.53.33,1.15.51,1.78.51,1.81,0,3.3-1.44,3.36-3.24.04-.03.07-.07.11-.11.22-.26.56-.48.92-.72.67-.44,1.42-.95,1.51-1.79.1-.82-.36-1.97-.72-2.9-.04-.1-.07-.19-.11-.28.29-.22.42-.57.53-.89ZM1527.9,382.45c-.11.65-.21,1.28-.3,1.94-.07.55-.12,1.08-.13,1.59-.11.81-.2,1.66-.28,2.58h-.02s-.02.26-.02.26c0,.06,0,.11-.01.17-.64.05-1.13.3-1.55,1.14-.04.07-.07.14-.1.21-.38-.77-.75-1.6-1.12-2.54-.15-.48-.31-.91-.47-1.3-.28-.78-.64-1.76-.92-2.36l-.06-.12c-.03-.06-.09-.16-.12-.21l-.47-.79c-.05-.12-.09-.25-.14-.37-.06-.17-.13-.34-.19-.51,1.31-.33,2.42-1.19,3.06-2.38.77.77,1.77,1.24,2.86,1.36.02.42.02.86-.02,1.33ZM1537.56,406.58l-2.33,2.57-1.02,1.29c-1.01,1.29-1.89,2.4-2.57,3.39-.05.06-.11.12-.16.18-.08.09-.17.18-.25.28-.37.43-.73.86-1.06,1.29-.31-.98-.53-2.23-.65-3.59-.13-1.48-.1-3.24.09-5.08l.42-4.11.19-1.68.1-.68c.08.01.16.02.25.02.05.09.1.17.16.25-.09.88.31,1.89,1.42,2.14.3.07.59.04.8-.02.47,1.33,1.73,2.23,3.16,2.23.22,0,.44-.02.66-.07.19.54.52,1.03.94,1.41l-.15.19Z"/>
      <path class="cls-1" d="M28.04,431.69c-.02-.34-.15-.67-.39-.93.25-.27.39-.63.39-.99s-.13-.71-.37-.98c0-.11-.01-.21-.03-.32.56-.22.94-.77.94-1.38s-.36-1.14-.91-1.37c.45-1.07.56-2.22.3-3.26-.29-1.16-.97-1.98-2.04-2.44.03-.11.04-.21.04-.32,0-.64-.4-1.19-1-1.4-.04-.41-.35-.84-.67-1.04,0-.16-.02-.29-.1-.38-.07-.09-.18-.13-.3-.12.1-.56.12-1.14.05-1.74-.26-2.19-1.55-4.15-3.29-5-.71-.34-1.51-.53-2.27-.53-.7,0-1.67.16-2.46.86-.24-.82-.75-1.42-1.29-1.94-1.25-1.23-2.87-1.88-4.69-1.88-.87,0-1.76.15-2.66.44-2.01.66-3.2,2.68-2.92,4.87-.07-.01-.14-.02-.21-.02-.33,0-.75.13-.95.69-.22-.12-.45-.18-.7-.18-.61,0-1.16.38-1.38.93-.09-.05-.18-.09-.28-.14-.44-.2-.91-.3-1.38-.3-1.91,0-3.66,1.64-4.4,3.25-.78,1.7-.35,4.02.94,5.23-.41.15-.67.39-.88.8-.29.59-.12.92.09,1.34v.02c-.08.11-.16.23-.23.36-.94.54-1.36,1.55-1.09,2.59.18.7.54,1.25,1.07,1.64-.14.3-.21.62-.21.95,0,1.1.79,2.03,1.86,2.21.04.6.32,1.15.78,1.54-.02.12-.03.24-.03.36,0,1.23,1,2.24,2.24,2.24.19,0,.37-.02.55-.07.21,1.04,1.11,1.79,2.19,1.79.38,0,.75-.1,1.08-.28.25.26.59.48,1.02.66.2.08.38.12.55.12.29,0,.52-.11.76-.25.37.29.87.38,1.32.24.05.09.07.2.1.31.05.22.12.47.33.68.41.41.96.6,1.66.6.18,0,.38-.01.59-.04.18-.02.39-.09.61-.17.08-.03.16-.05.23-.08l.06-.02.02-.02s.09-.04.14-.06c.07.67.06,1.4-.02,2.25-.06.71-.1,1.26-.12,1.75l-.05,1.67c-.01.34-.02.68-.03,1.02-.02.73-.05,1.42-.08,2.08v.2c-.07.89-.13,1.72-.21,2.48-.06.71-.18,1.77-.38,3.15l-.35,1.96c-.04.21-.08.41-.11.62-.09.48-.17.93-.26,1.36-.03.11-.06.23-.09.34-.05.19-.09.38-.16.54-.04.11-.08.21-.12.32-.06.17-.12.33-.19.49-.2.44-.41.87-.62,1.23l-.16.28h9.46l-.08-.24c-.05-.15-.1-.32-.15-.5l-.12-.4c-.03-.09-.07-.2-.13-.35-.03-.07-.06-.15-.09-.22-.05-.13-.11-.26-.15-.39-.04-.12-.19-.52-.38-1.04-.47-1.27-1.24-3.41-1.33-3.75-.17-.51-.28-1.12-.42-1.9l-.13-.71c-.05-.23-.07-.41-.08-.59-.02-.14-.03-.29-.04-.45-.03-.3-.05-.61-.11-.94l-.13-.71c-.01-.08-.03-.16-.04-.24-.03-.14-.05-.27-.05-.4,0-.06,0-.11,0-.17,0-.17-.01-.33.01-.51.02-.21.04-.46.09-.71.04-.27.09-.5.15-.72.04-.22.12-.44.21-.69.05-.15.11-.3.17-.46.04-.09.07-.17.11-.26l.59-1.65c.05-.12.1-.26.14-.39l.59-1.67c.05-.15.1-.29.14-.43.21.26.48.49.84.69.56.33,1.29.54,1.91.57.32.01.64-.03.94-.12.06-.02.14-.06.22-.11.06-.04.18-.1.22-.11.04,0,.08.05.15.11.06.06.13.12.22.18.35.2.83.23,1.08.23h.15c.47,0,1.32-.02,1.54-.6.18,0,.28-.08.33-.14.02-.03.05-.06.06-.1.57.1,1.1.17,1.65.17.45,0,.85-.05,1.22-.16,2.35-.67,3.66-3.57,3.53-5.87-.08-1.38-.82-2.84-2.11-3.07ZM14.74,440.5l-.03.06c-.17.38-.33.76-.48,1.12-.26.62-.5,1.2-.75,1.6v-.2c-.01-.58-.02-1.17-.07-1.79-.03-.54-.07-1.17-.13-1.8.29-.02,1.1-.12,1.71-.53-.08.59-.15,1.08-.25,1.54Z"/>
      <path class="cls-1" d="M2427.41,427.26c.08-.36,0-.78-.06-1.07-.15-.76-.36-1.4-.87-2.02-1.19-1.43-2.8-2.08-4.64-1.85-.05-.36-.19-.64-.57-.93-.14-.11-.29-.2-.44-.26-.17-1.55-1.48-2.73-3.05-2.73-.13,0-.27,0-.4.03.27-.37.47-.77.61-1.19.25-.82.41-2.03.11-2.96.03,0,.07-.02.1-.02.61-.14,1.18-.27,1.71-.75.71-.64,1.28-1.68,1.51-2.78.21-1,.16-2.83-.59-3.76-.28-.35-.63-.55-1.05-.61-.07-.33-.33-.49-.6-.59.66-.8.53-2.14.48-2.62-.13-1.33-1.09-2.48-2.84-3.41-.69-.37-1.47-.67-2.33-.92-.32-1.38-1.55-2.37-2.99-2.37-.45,0-.89.1-1.3.29-.42-1.23-1.57-2.07-2.9-2.07-1,0-1.93.49-2.51,1.3-.68-.43-1.49-.69-2.21-.89-1.8-.5-3.29-.54-4.66-.12-.52.16-1.41.44-1.81,1.01-.29-.23-.69-.35-1.16-.35-1.05,0-2.33.59-2.87,1.15-.81.83-1.62,2.44-1.18,3.73-.11.05-.2.14-.27.24-.38-.09-.72-.13-1.05-.13-.57,0-1.08.14-1.52.42-1.03.65-1.79,1.74-2.04,2.92-.26,1.25-.27,3.39.62,4.8-.23-.04-.46-.06-.68-.06-.64,0-1.19.18-1.6.52-.13-.07-.29-.11-.5-.11-.13,0-.25.01-.35.03-.42.05-.65.27-.78.52-.61-.43-1.34-.64-2.19-.64-1.14,0-2.22.39-2.92.71-.62.28-2.57,1.3-2.61,2.77-.96.55-1.56,1.55-1.56,2.67,0,.48.11.96.33,1.38-1.15.37-2.09,1.37-2.25,2.44-.14.93.35,2.38,1.09,3.24.44.51.95.79,1.46.81.01.13.06.26.14.39.09.15.21.26.34.32-.17.58-.12,1.2-.06,1.71.27,2.13,1.95,3.83,4.39,4.44.51.13,1.07.19,1.67.19.46,0,.94-.04,1.47-.11h.1c.44-.07,1.13-.16,1.44-.61.87.68,2,1.38,3.32,1.38.15,0,.3,0,.45-.03h.12s.03-.07.03-.07c.05-.02.11-.04.16-.06.19.12.38.24.57.35.36.22.74.45,1.09.7.21.16.43.31.64.46.35.25.72.51,1.06.79.94.75,1.6,1.58,2.24,2.38.26.32.52.65.78.95.34.49.71.92,1.06,1.31.23.3.41.56.56.78.04.06.08.12.13.18.1.14.22.31.33.49l.54.91c.07.12.14.23.21.35.13.21.26.43.37.66l.54,1.08c.05.09.1.19.14.28l.02.03c.34,1.13.57,2.39.72,3.94.12,1.32.15,2.59.16,3.78.01.62-.01,1.21-.04,1.7,0,.18-.02.36-.03.54-.02.36-.03.69-.06,1.02-.18,1.77-.66,4.52-1.48,6.98-.11.14-.3.48-.73,1.28-.5.91-1.18,2.17-1.6,2.75-.06.08-.18.23-.3.39-.35.45-.38.49-.4.56l-.1.32h13.07l-.28-.39c-.19-.26-.41-.55-.64-.85-.42-.54-.89-1.16-1.31-1.81-.33-.49-.61-1.05-.86-1.69-.13-.38-.25-.78-.37-1.16-.08-.25-.15-.5-.23-.72-.1-.45-.2-.87-.28-1.26l-.23-1.68c-.03-.3-.06-.6-.08-.89-.01-.18-.03-.35-.04-.52-.05-.53-.09-1.01-.11-1.41v-.2c0-.53-.04-1.05-.09-1.6-.05-.61-.11-1.24-.09-1.92.02-.65,0-1.32-.03-2.04-.02-.72-.05-1.47-.03-2.18.03-.59.01-1.19,0-1.77-.02-.88-.04-1.71.07-2.5.04-.23.1-.47.18-.74.11-.14.16-.24.17-.32.01-.07.01-.14,0-.2.16-.4.36-.81.63-1.25h.1s.01-.02.01-.02c.77-.16,1.74-.48,2.26-1.11.15.11.3.14.42.14.31,0,.61-.18.88-.39.27,1.28,1.88,2.1,3.09,2.29.21.03.42.05.62.05.94,0,1.76-.35,2.37-1.02.21-.23.36-.49.51-.74.06-.1.12-.2.18-.3.28.13.59.08.74-.13.01-.01.02-.03.03-.05.19.18.37.39.56.6.26.3.54.61.86.87.86.69,1.95,1.17,3.34,1.47.3.06.59.09.87.09.42,0,.84-.07,1.34-.21.04-.01.07-.02.11-.03.2-.05.51-.13.62-.42.13,0,.25.01.37.01,1.18,0,2.05-.33,2.73-1.05.98-1.03,1.36-2,1.16-2.91.43-.08.88-.18,1.29-.43,1.58-.94,1.69-3.13,1.27-4.87-.44-1.8-1.08-2.81-1.91-3.02ZM2391.48,431.76l-.53-.36c-.14-.09-.27-.18-.4-.27.19.04.39.06.6.06.41,0,.81-.09,1.19-.25.1.33.19.66.28,1.01.07.27.15.55.23.82,0,.03.02.06.02.09l-1.39-1.11ZM2399.71,423.92s.09-.01.14-.02c.01.23.05.46.12.68-.73.28-1.35.89-1.87,1.4h-.01c-.4-.7-.83-1.41-1.24-2.1v-.02c.96.17,1.93.19,2.86.06ZM2400.17,441.82l-.52-.96c-.09-.15-.17-.31-.26-.45-.25-.43-.46-.81-.65-1.07-.24-.36-.57-.84-1-1.33-.23-.27-.48-.54-.71-.79-.25-.33-.5-.67-.82-1.04l-.28-.31c-.24-.27-.49-.55-.76-.83l-.03-.04c-.36-.57-.67-1.22-.93-1.93-.1-.31-.2-.65-.32-1.05-.03-.13-.06-.27-.09-.4-.05-.24-.11-.46-.14-.7-.04-.3-.09-.59-.13-.88.44-.54.68-1.22.68-1.92,0-.09,0-.17-.01-.27.4-.29.51-.58.51-.82.88,0,1.48-.32,1.79-1.01.1-.21.15-.4.19-.59.25.46.49.91.73,1.35-.46.67-.71,1.4-.79,2.3-.09,1.04-.14,2.14.26,3.08.22.52.57,1.15,1.07,1.44-.16.37-.24.86-.23,1.48.01.97.58,1.78,1.73,2.47.3.18.63.34.97.48-.07,1.28-.16,2.55-.26,3.79Z"/>
      <path class="cls-1" d="M1562.39,380.34c.07.18.29.49,1.05.4h.03c.18-.03.55-.07.91-.07.61,0,.72.13.72.13,0,0,.01.1-.18.33l-.21.26.29.16c.08.04.16.08.25.12-1.02-.02-1.97.46-2.32,1.19-.29.6-.18,1.28.33,1.94.98,1.27,2.18,2.07,3.41,2.28.26,1.68,1.63,2.96,3.35,3.08.84.06,1.63-.16,2.32-.63.58.34,1.33.59,2.12.69.62.08,1.3.03,2.1-.17.59,1.11,1.71,1.85,2.97,1.94.61.04,1.21-.07,1.76-.32.33.54.99.92,1.61,1.06.37,1.42,2.21,2.17,3.9,2.17.77,0,1.47-.15,1.96-.43.44-.25.63-.71.8-1.12,0,0,0,0,0,0,.12.12.3.28.6.5l.06.04h.08c.07.02.15.02.22.03.12.09.24.17.37.26.6.42,1.27.9,1.47,1.15l.16.19.67.72c.2.21.4.41.58.66.64.76,1.25,1.63,1.84,2.47.21.3.42.6.62.88.76,1.18,1.19,2.44,1.2,3.57.02.76-.14,1.52-.32,2.33-.11.51-.23,1.04-.29,1.58-.03.23-.06.45-.09.67-.06.43-.12.85-.17,1.28l-1.02,9.06c-.11.85-.28,1.99-.47,3.31l-.2,1.33c-.19,1.21-.44,2.52-.68,3.78-.13.68-.26,1.36-.37,2-.16.6-.48,1.18-.81,1.8-.1.18-.19.36-.29.54-.24.49-.42.93-.57,1.32l-.24.61h16.49l-.35-.52s-.05-.07-.07-.11l-.7-1.11-.13-.24c-.41-.76-.82-1.55-1.09-2.39-.32-1.01-.47-2.13-.58-3.09l-.18-1.68-.89-5.67c-.03-.23-.03-.45-.04-.66,0-.09,0-.17,0-.25l-.03-1.18c-.03-.95-.08-1.74-.15-2.5l-.08-1.24c-.02-.33-.04-.66-.06-1-.09-1.52-.19-3.09-.16-4.79-.02-.76.02-1.53.06-2.35.01-.27.03-.55.04-.83.02-.82.09-1.65.17-2.52.02-.27.05-.53.07-.8l.05-.61.02-.16c.08-.57.15-1.05.22-1.42l.18-1.13c.15-.55.34-1.02.57-1.44.21-.42.49-.82.93-1.31.48-.57.71-1.05.9-1.5l.08-.02.05-.13c.2-.5.41-1.03,1.08-1.64h.13c.13,0,.27,0,.4,0,0,.19,0,.39.18.62.34.45.98.59,1.54.65.58,1.15,1.71,1.91,3,2,1.11.08,2.17-.35,2.92-1.16.49-.06,1.11-.2,1.4-.4.46-.32.48-.54.47-.85,0-.09,0-.18.01-.3.02-.1.06-.21.11-.32.04-.1.08-.2.11-.31.22,0,.43-.04.63-.07.11-.02.23-.04.34-.05l.28-.03-.03-.28c0-.07,0-.13.02-.15.02-.02.06-.02.08-.02.08,0,.2.05.28.17.18.29,0,.72-.2,1.17-.18.41-.36.84-.31,1.25l.03.2.2.04c.3.05.59.01.81-.03.22-.04.4-.07.6,0,.83.27,1.52.39,2.37.42.05,0,.1,0,.15,0,1.09,0,3.05-.34,3.77-1.59.2,0,.41.09.63.18.2.08.41.17.64.21,1.14.19,2.04.11,2.65-.24.67-.38,1.41-.85,1.72-1.51.05-.11.07-.21.08-.28.01-.07.02-.11.06-.16,0,0,0,0,.04-.03.05-.03.12-.07.19-.16.12,0,.24.01.36.01h0c1.37,0,2.58-.5,3.25-1.33.55-.69.72-1.57.49-2.56-.09-.39-.23-.77-.4-1.11.56-.28.99-.67,1.28-1.17.39-.67.46-1.41.18-2.07-.26-.63-.8-1.11-1.49-1.34-.02-.07-.04-.13-.08-.19.97-.6,1.72-1.63,2.08-2.92.45-1.59.24-3.24-.56-4.42-.91-1.35-3.11-2.4-5.02-2.4-.18,0-.37,0-.54.03-.05-.15-.12-.26-.2-.33.11-.31.17-.62.19-.94.06-.87-.2-1.74-.72-2.44-.12-.25-.28-.42-.48-.53-.54-.49-1.2-.79-1.91-.9.28-.52.52-1.11.38-1.78-.2-.98-.98-2.15-1.59-2.86-.35-.4-1.63-1.75-2.94-1.61-.88.09-1.84.62-2.61,1.05-.14-.24-.35-.31-.56-.34.5-1.19.85-2.46.17-3.8-1.52-2.98-4.7-4.76-8.49-4.76-.77,0-1.54.08-2.3.23-1.72.34-3.12,1.47-4.04,3.27-.02.05-.05.1-.07.14-.57-.45-1.27-.72-1.99-.77-1.45-.1-2.8.67-3.46,1.91-.58-1.11-1.71-1.87-2.98-1.95-.62-.04-1.23.07-1.78.33-.34-.54-.96-1.03-1.74-1.36-.72-.3-1.54-.46-2.42-.46-1.22,0-2.56.28-4.09.86-2.33.87-3.76,2.26-4.39,4.23-.41,1.27-.53,2.22-.36,2.87-.1.01-.19.04-.27.08-.31-.36-.73-.56-1.21-.56-.95,0-1.98.75-2.37,1.65-.14-.03-.3-.05-.45-.05-.66,0-1.14.31-1.29.8-.14,0-.26.03-.36.06-.08.02-.15.05-.25.05-.19,0-.37-.04-.57-.07-.34-.07-.73-.12-1.1-.03-1.61.42-2.93,2-3.58,3.22-.33.63-.54,1.4-.6,2.23,0,.12,0,.24,0,.34,0,.3,0,.39-.15.5-.11.08-.4.14-.66.2-.54.13-1.3.31-1.5.82-.56-.21-1-.17-1.49.09-.43.23-1.54,1.01-1.57,1.84,0,.09,0,.17.02.25-1.77.15-3.21,1.58-3.33,3.38-.04.56.05,1.13.27,1.65-.07.4-.13.43-.49.59-.1.05-.23.1-.37.18-.3.15-.81.48-.86.96-.01.14,0,.33.16.54-.32.36-.45.72-.34,1.01ZM1597.25,392.63c.21.03.39.13.59.24.26.14.53.28.87.28.24,0,.46-.07.7-.22.22-.13.38-.26.5-.35.07-.06.17-.13.18-.14.09.03.36.35.45.46.21.25.59.53.97.74-.34.86-.74,1.66-1.11,2.37l-.14.29c-.11.17-.22.34-.33.52l-.17.26s-.06-.09-.09-.13c-.66-.92-1.53-1.51-2.44-2.09-.15-.1-.31-.19-.46-.29-.19-.12-.38-.24-.57-.36.58-.25.96-.8,1.05-1.57Z"/>
      <path class="cls-1" d="M2343.68,417.21s0-.05-.01-.07c.5-.73.74-1.61.68-2.49-.04-.56-.2-1.11-.47-1.6,1.28-.29,2.19-1.49,2.1-2.83-.07-1.01-.69-1.88-1.59-2.29.11-.42.15-.85.12-1.28-.06-.89-.42-1.72-1.02-2.37.5-.73.74-1.61.68-2.49-.09-1.26-.77-2.39-1.83-3.06.52-2.17.19-4.16-.97-5.74-1.34-1.83-3.75-3.05-6.5-3.28.21-.63.27-1.3.18-1.96-.29-2.11-2.32-3.69-4.17-4.18-.71-.18-1.34-.23-1.9-.27-1.05-.07-1.87-.13-2.89-.98-1.72-1.42-3.19-2.03-4.94-2.03-.64,0-1.33.08-2.09.25-2.62.58-4.92,1.22-6.45,3.11-.35-.13-.74-.19-1.14-.19-1.03,0-2.02.43-2.58,1.12-.34.42-.56,1-.63,1.64-.32-.1-.64-.14-.98-.12-.89.06-1.7.57-2.15,1.35-.75-.14-1.57-.02-2.14.33-.33-.7-1.09-1.08-2.2-1.08-.96,0-1.94.27-2.49.51-.36.15-.66.32-.9.5-.27-.06-.51-.08-.77-.06-1.49.1-2.62,1.4-2.52,2.9.02.31.1.6.23.89-.77.32-1.3.83-1.64,1.59-.35.76-.55,1.69-.57,2.61-1.41.19-2.45,1.44-2.35,2.88.07,1.03.71,1.9,1.64,2.3-.12.5-.16,1-.11,1.47-1.2,1.21-2.07,2.8-2.41,4.43-.24-.05-.48-.07-.72-.05-.72.05-1.38.38-1.86.93-.48.55-.71,1.25-.66,1.97.03.46.18.91.44,1.29-.57.46-.93,1.06-1.06,1.79-.18.99-.03,2.03.43,2.93-.05.06-.09.12-.14.18-1.22,1.83-1.19,5.17.07,7.13.69,1.08,1.96,3.06,3.72,3.22-.02.12-.01.25.02.36.04.14.12.26.22.36-.45.68-1.06,1.66-.9,2.49.21,1.09,1.88,2.15,3.06,2.22-.08,1.4.73,2.55,2.27,3.21-.1.32-.14.65-.12.98.1,1.48,1.4,2.62,2.9,2.52.56-.04,1.08-.25,1.52-.61.49.1,1.07.16,1.75.16,1,0,1.98-.12,2.45-.17.1-.01.18-.02.25-.02.25,0,.33.06.48.17.08.06.18.13.32.2.32,1.26,1.49,2.14,2.81,2.05.92-.06,1.73-.59,2.17-1.39.37.15.76.21,1.16.18.53-.04.68-.25.77-.52.07.23.13.46.19.7.11.44.23.89.41,1.28.39.85,1.54,1.16,2.48,1.16.47,0,.93-.08,1.31-.21.04.07.08.15.11.22.28.66.22,1.37.16,2.12-.03.38-.06.76-.05,1.14.02,1.12-.05,2.19-.14,3.2-.07,1.02-.2,1.9-.41,2.69-.08.29-.12.62-.16.98-.07.63-.16,1.34-.47,2.1-.5,1.18-1,2.55-1.43,3.77l-.08.22c-.15.44-.32.84-.49,1.24l-.28.67h13.11l-.86-2.36c-.57-1.47-1.11-3.11-1.55-4.42-.2-.59-.37-1.11-.51-1.5-.11-.34-.23-.7-.35-1.09-.24-1.22-.55-2.29-.8-3.16-.06-.23-.13-.44-.18-.64-.02-.15-.05-.31-.08-.46-.16-1-.33-2.18-.39-3.41-.03-.24.09-.51.22-.8.11-.25.22-.51.26-.78.06,0,.13.01.19.01.57,0,.99-.37,1.36-.69.37-.32.71-.63,1.17-.58.62.05,1.34.25,2.09.46.96.27,1.95.54,2.87.54s1.57-.26,2.09-.81c.89-.93,1.18-1.74.96-2.91.72.28,1.5.35,2.08.35.66,0,1.32-.09,1.91-.25.86-.23,1.86-1.1,1.97-2.02.02-.17.02-.41-.09-.66.12.01.25.02.38.02,1.26,0,2.73-.57,3.51-1.35.56-.56,1.04-1.47,1.31-2.46,1.23-.35,2.04-1.5,1.95-2.79-.05-.73-.39-1.4-.96-1.87.34-.37.52-.78.56-1.28,0-.01,0-.03,0-.04,1.65-.59,2.71-2.2,2.59-3.97-.11-1.55-1.1-2.87-2.55-3.41Z"/>
      <path class="cls-1" d="M580.21,378.86c-.44-.31-.92-.32-1.35-.33-.34,0-.63-.01-.87-.16-.27-.16-.37-.47-.5-.83-.13-.38-.29-.81-.68-1.1-.32-.23-.68-.34-1.08-.34-.86,0-1.75.52-2.54.98-.33.19-.64.37-.92.49.05-.73-.03-1.76-.28-2.53-.36-1.11-1.5-1.92-2.7-1.92-.27,0-.54.04-.79.12-.4.13-.74.55-1.07.95-.24.29-.57.7-.76.7-.06,0-.13-.07-.18-.13l-.2-.26-.22.24c-.13.14-.35.26-.64.34.03-.17.05-.35.05-.53,0-.11,0-.22-.02-.33.15-.07.31-.19.37-.38.1-.36-.2-.68-.54-1.05-.06-.07-.13-.14-.2-.21-.35-.39-.44-.64-.57-1.01-.07-.19-.15-.4-.27-.67-.48-1.03-1.24-1.37-1.94-1.49.27-.46.41-.98.41-1.52,0-1.68-1.36-3.04-3.04-3.04h-.02c-.09-.25-.33-.38-.53-.49-.13-.07-.27-.15-.29-.22-.09-.3-.04-.55.02-.81.12-.54.14-.99-.58-1.42.17-.16.38-.29.59-.43.42-.27.86-.56,1.05-1.05.33-.89-.35-2.22-.8-2.87-.15-.22-.34-.29-.47-.34-.04-.02-.08-.03-.1-.05.88-.55,1.41-1.51,1.41-2.57,0-1.42-.98-2.64-2.35-2.96-.45-1.22-1.88-1.92-3.18-2.2,0-.07,0-.14,0-.21,0-1.68-1.36-3.04-3.04-3.04-.71,0-1.4.25-1.95.71-.22.02-.44.06-.67.14-.32.11-.55.28-.76.44-.13.1-.25.19-.4.27-.14.08-.39.15-.62.21-.33.09-.63.18-.83.33-.12.09-.26.28-.42.49-.1.13-.26.34-.38.47,0-.08-.01-.19,0-.36,0-.27.16-.51.32-.77.27-.43.62-1-.04-1.62.2-.22.3-.48.31-.79.03-.79-.61-1.71-1.22-2.18-.43-.32-.86-.48-1.36-.48-.32,0-.63.06-.95.12-.12.02-.25.05-.37.07-.13-.86-.61-1.61-1.33-2.09.22-2.34-2.03-4.06-4.32-4.5-.28-.05-.56-.08-.84-.08-1.79,0-3.37,1.07-4.13,2.8-.08.19-.18.39-.27.6-.14.3-.29.61-.4.9-.11.27-.14.59-.17.9-.03.32-.06.64-.18.83-.12.2-.3.25-.52.33-.23.08-.49.16-.69.41-.12.15-.19.31-.23.48-.46-.27-.99-.41-1.52-.41-.79,0-1.53.3-2.1.85-.44-.1-.88-.1-1.32,0-.56-.54-1.32-.85-2.1-.85-1.66,0-3.01,1.33-3.04,2.98-.36-.14-.74-.22-1.13-.22-1.68,0-3.04,1.36-3.04,3.04,0,.4.08.79.23,1.15-.83.01-1.62.37-2.18.97-.11-.1-.23-.19-.36-.28-.37-.23-1.06-.46-1.68-.46-.66,0-1.11.26-1.26.73-.48.12-.81.44-.92.88-1.35.07-2.62.15-2.82,1.91-.14,0-.31-.01-.49-.03-.28-.02-.59-.04-.9-.04-.54,0-1.31.05-1.7.52-.17.2-.24.46-.23.76-.47.21-.6.55-.7.82-.05.14-.11.27-.2.39-.12.15-.3.28-.48.4-.3.22-.64.46-.78.88-.2,0-.39-.02-.58-.03-.19-.01-.36-.03-.54-.03-.51,0-1.11.11-1.64.91-.45.68-.87,2.43-.5,3.35.11.27.41.56.76.91.3.3.92.91.84,1.11,0,0-.07.18-.81.23l-.23.02-.02.23c0,.11,0,.22,0,.34-.14-.02-.28-.03-.42-.03-1.27,0-2.42.81-2.85,1.99-.09.01-.17.03-.25.05l-.19.06v.12c-.41-.21-.88-.33-1.37-.33-1.31,0-2.45.8-2.75,1.94-.08.31-.07.57-.05.81.02.32.03.54-.19.82-.15.19-.41.29-.69.4-.39.15-.84.33-1.08.81-.03.07-.06.14-.08.2-.05.04-.11.07-.16.11-.67.5-1.4,1.14-1.77,2.11-.09.23-.13.45-.17.66-.06.3-.1.57-.28.79-.1.12-.26.2-.44.29-.29.14-.65.31-.82.74-.2.5-.03.84.1,1.08.08.15.14.27.14.43-.02.5-.14.51-.57.57-.32.04-.76.09-1.15.45l-.11.1.03.15c.09.49.06.82-.08.99-.12.14-.35.21-.73.21-.2,0-.41-.02-.63-.03-.23-.02-.46-.04-.68-.04-.26,0-.47.03-.65.08-1.04.3-1.96,1.56-2.16,2.54-.04.21-.06.38-.07.52-.02.21-.03.38-.13.66-.05.15-.13.27-.2.4-.18.31-.38.66-.19,1.26.54,1.7,2.69,1.8,4.42,1.88.43.02.85.04,1.2.08,0,.02-.02.03-.02.05-.05.1-.09.19-.14.24l-.24.26.3.17c.3.17.6.28.9.33,0,.04,0,.08,0,.12,0,1.68,1.36,3.04,3.04,3.04.94,0,1.82-.43,2.39-1.17.76.4,1.72.55,2.28.31.25-.1.45-.37.66-.64.22-.29.47-.62.7-.62.1,0,.21.06.34.18.22.2.21.58.19,1.02-.02.58-.04,1.3.51,1.87.45.47,1.25.98,1.92.98.27,0,.88-.1,1.06-.95.18,0,.38.03.59.05.29.03.59.07.88.06.51,1.03,1.56,1.68,2.72,1.68s2.23-.68,2.73-1.71c.3.46.74.88,1.35.88.28,0,.56-.09.86-.26.32-.19.4-.52.47-.78.05-.17.09-.33.17-.39.01,0,.09-.05.35-.05.2,0,.43.02.63.04.05,0,.1,0,.14.01.13.27.41.42.79.42.73,0,1.7-.54,2.02-.89.26-.29.36-.54.44-.75.11-.29.15-.4.67-.47.22-.03.59.04.99.1.41.07.87.15,1.29.15.95,0,1.29-.43,1.39-.89.51.06,1.03.2,1.57.34.54.14,1.1.28,1.66.35h.02s.02,0,.02,0c.13,0,.27-.02.41-.03.22.14.42.27.6.39.92.65,1.7,1.57,2.41,2.84.09.17.17.34.26.52l.03.06c.33.8.59,1.66.77,2.53v.07s.03.06.03.1c.2,1.09.13,2.13.05,3.02-.03.26-.06,1.12-.11,2.29-.11,2.85-.3,7.63-.65,8.6-.06.2-.15.4-.25.61-.06.13-.12.25-.17.36-.13.25-.28.48-.44.73l-.13.2c-.53.65-1.03,1.1-1.56,1.42-.38.24-.81.46-1.31.69l-1.17.53h25.82s-.41-.47-.41-.47c-.09-.1-.17-.19-.26-.28-.18-.2-.36-.4-.55-.61-.62-.68-1.26-1.38-1.73-2.07l-.47-.62c-.11-.19-.21-.38-.31-.56l-.03-.06c-.09-.16-.17-.31-.26-.45-.13-.22-.24-.41-.32-.57-.34-.72-.68-4.1-.99-7.08-.25-2.43-.48-4.72-.71-5.75-.19-.79-.38-1.72-.38-2.63.46-.93,1.78-1.33,2.83-1.5.92-.14,1.91-.27,2.87-.4.54-.07,1.09-.15,1.63-.22l1.03-.14.03.1h.08s.02.07.02.07l.14-.02c.09.21.11.41.14.61.05.42.11.84.69,1.34.33.28,1.01.77,1.58.67.28-.05.44-.25.56-.4.03-.04.08-.1.08-.11.34-.08.62.03.94.17.3.13.65.29,1.1.26.42-.03.75-.24,1.07-.45.24-.16.47-.31.74-.38.14-.04.54-.03,1-.02.23,0,.48.01.73.01.75,0,1.57-.06,1.91-.52.08-.1.15-.26.15-.48.13-.01.26-.02.38-.02.4,0,.68.09.91.29.14.12.18.24.23.4.09.26.19.59.75.81.23.09.48.14.77.14.22,0,.43-.03.63-.05.2-.02.39-.05.57-.05.23,0,.42.03.6.11.22.09.44.19.65.28.69.3,1.4.61,2.22.85.44.13.87.19,1.27.19,1.79,0,3.05-1.33,3.34-3.5.41.02.8.18,1.17.35.39.17.8.35,1.24.35.18,0,.36-.03.53-.09.53-.19.94-.78,1.14-1.35.32.11.66.17,1.01.17,1.68,0,3.04-1.36,3.04-3.04,0-.54-.14-1.07-.42-1.54.17-.27.61-.35,1.26-.44.7-.1,1.49-.21,1.96-.79.56-.68.7-1.58.83-2.45.08-.5.15-.98.3-1.38.12-.31.34-.6.55-.88.34-.45.69-.91.61-1.46-.06-.43-.36-.82-.95-1.23ZM531.85,390.71c-.14.17-.27.34-.4.5-.6.69-1.16,1.35-1.81,1.78-.57.43-1.2.67-1.75.67h-.04s-.04,0-.04,0c-.34,0-.78-.12-1.24-.33-.17-.34-.33-.63-.49-.89-.64-1.02-1.53-1.99-2.66-2.87-.34-.27-.68-.49-.97-.68.1-.03.2-.07.29-.14.47.31,1,.69,1.27.94.28.25.46.53.65.82.35.54.72,1.11,1.66,1.35,1.41.37,2.78-.3,3.78-1.83.26.21.52.32.8.32.34,0,.62-.15.9-.3.19-.1.37-.2.56-.24.09-.02.17-.02.25-.03-.26.31-.51.62-.75.92ZM539.42,390.59c-.46.02-.91.04-1.34.05-.22,0-.45.02-.71.05.04-.1.09-.21.14-.31.04-.09.09-.18.13-.27l.11-.03h0c.2-.06.48-.07.75-.08.5-.01,1.02-.03,1.3-.37.09-.12.15-.27.16-.44.49.08,1.13.34,1.42.67.16.18.22.41.27.66-.76,0-1.51.03-2.23.06ZM571.93,378.94s-.04.02-.11,0c-.04,0-.06-.02-.07-.02h0c0-.1.16-.37.25-.51.01-.02.02-.04.03-.05,0,.23-.02.48-.11.57Z"/>
      <polygon class="cls-1" points="1551.54 430.95 679.81 400.94 679.5 414.94 1551.23 435.95 1551.54 430.95"/>
      <rect class="cls-1" x="974.66" y="416.98" width="23.81" height="30.91"/>
      <rect class="cls-1" x="1086.56" y="418.98" width="20" height="30.91"/>
      <rect class="cls-1" x="1199.06" y="420.98" width="15" height="30.91"/>
      <rect class="cls-1" x="1311.56" y="426.98" width="10" height="30.91"/>
      <path class="cls-2" d="M2436.43,465.53h2.89c-2.58-4.19-14.43-5.7-16.1-5.93-5.2-.71-8.73-.74-13.97-1.4-5.09-.64-14.35-2.91-19.13-3.88-4.71-.96-13.79-3.23-18.82-3.82-7.22-.84-22.62-.32-29.84-1.16-4.69-.55-12.7-3.28-17.52-3.56-3.59-.21-10.71,1.29-14.3,1.06-6.57-.42-17.23-4.37-23.64-5.11-5.96-.69-19.04.43-24.68-.63-5.65-1.06-12.09-6.13-17.6-7.31-5.47-1.17-18.61-.66-24.25-1.68-5.44-.99-13.14-5.37-18.86-6.03-5-.58-15.65-8.38-20.62-7.74-7,.9-18.76,4.54-26.03,4.91-5.94.3-17.49-1.72-23.29-2.34-5.62-.59-16.63-2.32-22.41-2.49-5.99-.18-17.85,1.09-23.84,1.19-5.17.09-15.59-.69-20.7-.33-8.32.58-23.25,4.29-31.46,5.1-8.84.88-27.3.04-36.34.43-5.25.23-15.54,1.31-20.79,1.55-13.64.64-41.24.32-54.83,1.11-5.47.32-16.08,1.69-21.51,2.08-6.19.45-18.69.99-24.94,1.26-5.09.22-15.49.11-20.41.71-7.07.86-19.33,4.52-26.13,5.7-5.93,1.03-18.44,2.34-24.47,3.26-7.8,1.19-21.34-.07-29.64-.25-6.41-.14-17.9,1.61-23.67.43-5.49-1.12-16.5-3.43-22.4-4.1-6.47-.74-19.88-1.48-26.59-1.5-.8,0-2.4.23-3.18.15-7.36-.77-18.6-5.52-25.02-7.21-6.92-1.83-20.32-6.18-28.35-6.83-6.99-.56-21.17,1.18-28.18,1.7-5.79.43-17.28,1.51-23.03,2.03-5.96.54-17.78,2.61-23.8,2.21-6.15-.4-15.35-4.91-21.51-5.25-6.07-.34-17.56,2.69-23.68,2.64-7.23-.05-20.6-4.12-27.68-3.51-6.62.57-14.22,6.48-20.69,7.3-7.31.92-22.79-1.95-30.33-1.46-4.01.26-11.38,1.89-14.83,2.78-5.79,1.5-15-.26-19.96,1.7-4.98,1.97-12.48.92-17.56,2.84-4.79,1.81-13.64-.16-19.51.97-6.06,1.17-19.82,1.37-26.05,2.35-4.99.79-13.53,3.7-18.64,4.34-4.5.57-14.05.66-18.75.62-6.52-.05-21.5,5.81-26.98,4.32-6.47-1.75-11.67-3.16-16.9-5.53-4.96-2.24-17.95-.56-24.89-1.5-5.33-.72-16.97.51-22.41-.06-6.87-.71-18.11-5.81-25.14-5.47-5.56.27-12.11,4.97-16.96,6.14-5.29,1.29-17.42,2.43-23.08,3.41-5.36.92-15.21,3.83-20.96,4.15-5.91.32-17.79-1.02-23.45-1.8-5.53-.77-15.38-3.55-20.9-4.33-5.45-.77-16.91-2.18-22.6-1.83-6.13.37-15.93,4.27-22.01,4.76-6.93.57-21.06-1.2-28.11-1.07-5.81.11-16.13-4.36-21.79-3.82-6.61.63-18.77-1.5-25.09-2.53-5.82-.95-10.33-1.31-14.29-3.35-5.68-2.92-19.49-2.85-27.18-4.8-4.79-1.21-15.89-2.29-21.2-3.03-5.48-.77-16.52-2.2-21.98-3-5.3-.78-16.14-2.17-21.04-3.32-3.63-.85-9.2-3.74-13.14-4.28-5.84-.81-19.05,1.33-24.61.22-4.72-.94-8.54-5.7-12.9-6.91-4.71-1.31-16.16-2.4-21.8-2.46-5.28-.05-15.37,1.72-20.63,1.9-5.7.2-17.46.32-22.84-.5-4.87-.74-12.88-3.69-16.63-5.19-3.44-1.38-8.94,2.61-12.03,1.08-4.16-2.05-12.58-1.15-18.14-2.5-5.63-1.37-19.14-2.83-25.48-2.23-9.09.86-19.37,3.36-28.6,3.91-7.13.43-19.7-4.58-26.88-4.35-7.53.24-19.66,4.72-26.21,6.29-5.79,1.39-16.71,4.84-23.16,5.54-8.91.98-27.64-.1-36.85-.09-5.63,0-16.91.28-22.53.12-5.61-.16-16.64-1.21-22.25-1.4-5.47-.18-16.48-.35-21.93-.1-6.71.31-19.57,2.38-26.3,2.58-6.46.2-20.09.36-25.82-.91-6.03-1.33-11.37-7.41-17.26-8.85-5.44-1.33-18.71-1.12-24.82-1.75-6.76-.7-19.5,3.72-26.47,3.61-7.38-.11-22.02,1.64-28.64,3.02-6.46,1.34-16.41,5.95-22.56,7.53-6.01,1.54-18.6,4.92-25.64,4.88-4.01-.02-10.61-2.44-14.44-2.94-3.82-.5-12.38-1.84-15.84-.99-4.49,1.09-2.49,7.62-7.54,8.12-3.29.33-6.7-3.6-10.05-3.8-5.75-.33-14.98,4.16-20.77,4.34-5.47.17-15.43-3.05-20.89-2.83-4.55.18-13.82,2.03-16.01,3.71-1.89,1.46,2.83,5.12,1.12,6.62-1.79,1.56-9.71,3.36-13.59,3.94-7.99,1.21-26.98-.87-33.84,1.23-5.27,1.61-4.36,8.8-10.1,10.1-3.75.85-12.71-1.88-16.75-1.31-6.91.97-13.73,7.25-19.63,9.05-6.34,1.93-20.73,5.23-28.55,5.43-7.61.19-21.45-1.45-29.04-1.7-5.76-.19-16.6,3.09-23.48,7.58h2447.11Z"/>
    </g>
  </g>
  <rect class="cls-1" x="-24.12" y="462.3" width="2432.81" height="366.66"/>
</svg>