<?xml version="1.0" encoding="UTF-8"?>
<svg id="Layer_1" data-name="Layer 1" xmlns="http://www.w3.org/2000/svg" version="1.1" viewBox="0 0 377.9 377.9">
  <defs>
    <style>
      .cls-1 {
        fill: #f4efe9;
        stroke-width: 0px;
      }
    </style>
  </defs>
  <path class="cls-1" d="M188.9,0C84.6,0,0,84.6,0,188.9s84.6,188.9,188.9,188.9,188.9-84.6,188.9-188.9S293.3,0,188.9,0ZM198.9,53.5c12.1,0,22.4,9.9,22.2,22.7-.2,12.6-10,22-22.3,22.1-12.8-.1-22.4-10-22.4-22.3,0-13.1,10.5-22.6,22.5-22.5h0ZM267,194.2c-2.7,3.6-7.9,5.4-11.9,3.3-3.4-1.8-6.6-4.1-9.8-6.3-8-5.5-16-11.2-24.1-16.6-3.1-2.1-4.5-5.1-6.1-8.2-1.9-3.8-3.7-7.5-5.6-11.3-.2-.3-.4-.6-.8-1.2-.6,2.3-1.1,4.3-1.5,6.4-1.4,6.1-2.8,12.2-4.1,18.4-1.4,6.3-2.9,12.6-4.3,19-.1.5,0,1.3.4,1.7,7.2,8.6,14.6,17.1,21.8,25.7,5.6,6.7,11.3,13.3,16.8,20.1,1.1,1.4,1.9,3.4,2.2,5.2,1.4,6.3,2.5,12.6,3.7,18.9.8,4,1.4,8,2.2,11.9,1.1,5.6,2.3,11.3,3.2,16.9.7,4.3,2.2,8.6,1.5,13.1-.8,5.3-3.6,9.2-8.4,11.5-6.3,3-12.9,1.6-17.6-3.5-2.4-2.5-3.5-5.7-4.1-9-1-5-1.9-9.9-2.9-14.9-1.2-6.2-2.3-12.3-3.5-18.5-1-5.5-2-11-3.1-16.5-.2-1-.8-1.9-1.5-2.7-8.9-9.8-17.9-19.6-26.8-29.4-1.4-1.5-2.7-2.9-4.3-4.7-.7,3-1.3,5.7-1.9,8.5-1.2,5.7-2.4,11.3-3.7,17-.6,3-1,6-1.9,8.9-.7,2.4-1.9,4.6-3.2,6.8-8.2,14-16.5,28.1-24.8,42-2.3,3.9-4.5,8-7.3,11.6-6.8,8.8-19.9,7.5-25.2-2.3-.2-.3-.3-.7-.4-1-1.1-5.1-1.4-10.1,1.5-14.8,6-10,12-20,17.9-30,3.2-5.3,6.4-10.5,9.4-15.9,1.1-1.9,1.5-4.3,2-6.5,1.7-7.2,3.3-14.5,4.9-21.8,1.9-8.6,3.8-17.1,5.8-25.7,1.4-6.4,2.9-12.9,4.4-19.3,1.6-7.3,3.3-14.6,4.9-21.9.9-4.1,1.9-8.3,2.8-12.4h-.3c-4,3.1-7.9,6.6-12.1,9.5-3.1,2.1-3.8,5-4.5,8.3-1.3,6.7-3,13.4-4.5,20.1-1,4.6-1.9,9.2-3.1,13.7-1.2,4.5-5.5,7.3-10.6,7.1-4-.1-8.1-3.6-8.7-7.9-.3-2.1,0-4.5.5-6.6,1.4-6.8,2.9-13.6,4.4-20.4,1.2-5.3,2.4-10.6,3.6-15.9.3-1.4.8-2.9,1-4.3.5-3.3,2.4-5.6,4.8-7.6,9.2-7.5,18.4-15,27.7-22.4,5.2-4.2,10.3-8.5,15.6-12.5,6.6-5,14-6.4,21.9-3.5,5.7,2.1,10,6.1,12.7,11.5,3.9,7.6,7.7,15.2,11.6,22.8,3.2,6.4,6.4,12.8,9.6,19.2.4.7,1,1.4,1.6,1.9,9.8,6.8,19.7,13.6,29.6,20.4,2.4,1.7,3.9,3.9,3.7,7-.2,2.4.3,4.8-1.4,7.1h0Z"/>
</svg>