<?xml version="1.0" encoding="UTF-8"?>
<svg id="Layer_1" data-name="Layer 1" xmlns="http://www.w3.org/2000/svg" viewBox="0 0 100 100">
  <defs>
    <style>
      .cls-1 {
        fill: #000;
        stroke-width: 0px;
      }
    </style>
  </defs>
  <path class="cls-1" d="M45.91,62.84c-.4,1.91-.72,3.54-1.07,5.17-.55,2.56-1.01,5.15-1.73,7.67-.35,1.24-1.13,2.37-1.81,3.49-.9,1.48-1.89,2.9-2.84,4.34-.09.13-.22.24-.3.37-2.21,3.94-4.39,7.9-6.62,11.83-.95,1.68-2.23,3.13-3.97,4.01-.59.3-1.44.33-2.11.19-4.32-.89-6.41-4.58-4.17-8.7.95-1.75,2.04-3.43,3.09-5.13,2.36-3.85,4.87-7.61,7.02-11.57.8-1.47.78-3.38,1.11-5.09.05-.26-.17-.68-.05-.81,1.79-1.86,1.29-4.38,1.88-6.57.8-2.96,1.37-5.98,2.01-8.98.09-.41,0-.86.02-1.29,0-.23-.03-.52.09-.68,1.53-2.02,1.28-4.54,1.88-6.81.8-3.01,1.39-6.07,2.08-9.11.04-.18.07-.37.17-.89-.95.52-1.74.81-2.35,1.31-1.13.93-2.21,1.93-3.18,3.02-.44.49-.67,1.24-.84,1.91-.54,2.19-.57,4.48-1.65,6.59-.56,1.1-.46,2.55-.63,3.85-.19,1.43-.42,2.74-1.57,3.89-1.41,1.41-3.16,1.32-4.65.06-2.28-1.94-1.05-4.03-.71-6.09.27-1.61.85-3.16,1.15-4.77.26-1.4.32-2.84.47-4.27.01-.12,0-.27.08-.34,1.31-1.27,1.14-3.03,1.59-4.59.15-.51.43-1.08.82-1.42,1.14-.99,2.21-2.04,3.53-2.88,1.93-1.22,3.53-2.96,5.38-4.31,1.4-1.02,2.32-2.53,4.06-3.23,1.23-.5,2.13-1.78,3.25-2.62.72-.54,1.56-.92,2.35-1.34.63-.33,1.27-.65,1.92-.93.3-.13.64-.21.97-.24.41-.04.83-.04,1.23,0,.26.03.52.12.75.24.67.34,1.3.82,2,1.05,2.27.75,3.29,2.63,4.26,4.54,2.15,4.21,4.26,8.44,6.38,12.66.38.76.66,1.6,1.16,2.27.48.65,1.13,1.21,1.79,1.69,1.59,1.17,3.24,2.27,4.86,3.39.36.25.74.48,1.13.67,2.08,1.06,3.98,2.33,5.21,4.4.12.2.29.52.21.65-.63,1.02-1.3,2.02-1.99,3-.12.17-.42.21-.6.36-.89.72-1.64.97-2.72.06-1.28-1.06-2.86-1.75-4.26-2.68-2.89-1.94-5.82-3.82-8.56-5.96-1.01-.79-1.55-2.19-2.22-3.37-.68-1.19-1.26-2.44-1.92-3.73-.64,1.63-1.35,3.01-1.72,4.48-.39,1.57-.38,3.24-.69,4.83-.31,1.58-.94,3.11-1.2,4.69-.2,1.21-.58,2.45.65,3.63,1.29,1.23,2.59,2.54,3.34,4.28.34.79,1.12,1.41,1.73,2.08,1.53,1.67,3.11,3.28,4.6,4.98,1.42,1.63,2.98,3.2,4.05,5.05.71,1.24.65,2.92.98,4.4.15.67.39,1.32.6,1.98.1.33.28.64.34.98.5,2.87,1.02,5.74,1.47,8.61.4,2.53.75,5.07,1.07,7.61.21,1.61-.58,2.86-1.84,3.69-1.17.77-2.34,1.52-3.95,1.51-1.6-.01-2.49-1.02-3.51-1.82-.77-.61-1.41-1.55-1.76-2.47-.32-.84-.15-1.86-.25-2.79-.18-1.62-.41-3.24-.63-4.86-.02-.16-.07-.32-.14-.46-1.38-2.88-1.26-6.06-1.65-9.11-.28-2.12-1.31-3.55-2.73-4.92-.89-.86-1.75-1.75-2.59-2.66-2.22-2.41-4.41-4.83-6.63-7.25-.19-.2-.42-.36-.95-.8Z"/>
  <path class="cls-1" d="M45.44,8.17c-.45-5.41,5.43-9.41,10.56-7.81,3.35,1.05,5.76,4.98,5.41,8.52-.21,2.13-.74,4.05-2.48,5.38-.8.62-1.78,1.01-2.7,1.47-.32.16-.72.17-1.01.35-.98.63-1.88.79-2.8-.11-.18-.18-.6-.13-.91-.15-1.56-.09-2.69-.9-3.92-1.83-2.09-1.57-1.92-3.71-2.14-5.82Z"/>
</svg>