<?xml version="1.0" encoding="UTF-8"?>
<svg id="Layer_1" data-name="Layer 1" xmlns="http://www.w3.org/2000/svg" version="1.1" viewBox="0 0 377.9 377.9">
  <defs>
    <style>
      .cls-1 {
        fill: #f4efe9;
        stroke-width: 0px;
      }
    </style>
  </defs>
  <path class="cls-1" d="M177.8,231v23.9h22.2v-23.9c-7.5,1.9-14.9,1.8-22.2,0Z"/>
  <path class="cls-1" d="M151.4,268.6c-4.8.5-9.2,4.7-9.5,9.5-.3,4.1,0,8.3,0,12.7h94.1c0-4.3.2-8.4,0-12.5-.4-6-5.4-9.9-12.2-9.9-23.2,0-46.4,0-69.6,0s-1.8,0-2.7.1h0Z"/>
  <path class="cls-1" d="M87.9,105.3c.7,15.5,3.5,30.4,9,44.8,4.7,12.2,11.1,23.4,20.3,32.9,5.7,5.8,12.1,10.6,20.2,13.7-16.5-28.6-23.5-59.4-26.3-91.3h-23.2Z"/>
  <path class="cls-1" d="M188.9.8C84.6.8,0,85.4,0,189.8s84.6,188.9,188.9,188.9,188.9-84.6,188.9-188.9S293.3.8,188.9.8ZM303.6,105.2c-.4,4.6-.8,9.2-1.3,13.8-3.1,24.5-10.8,47.2-26.2,66.8-9.4,12-21,21.1-36,25.2-3,.8-6.1,1.3-9.2,1.7-1.7.2-3,.8-4.3,2-3.7,3.3-7.6,6.4-11.4,9.6-.6.5-1.4,1.3-1.4,2,0,9.5,0,18.9,0,28.8,1,0,1.9,0,2.7,0,4.5.2,9.2-.2,13.6.6,10.9,1.9,18.9,11.4,19.5,22.3.2,4.2,0,8.5,0,12.7,1,.2,1.7.4,2.4.6,3.2,1,5.1,3.7,4.8,6.9-.3,3.3-2.8,5.8-6.1,6.1-.7,0-1.3,0-2,0h-119.8c-4.7,0-7.7-2.5-7.8-6.5-.1-3.7,2.2-6.1,7.1-7.2,0-3.4,0-6.9,0-10.4.2-13,8.3-22.8,20.7-24.9,2.7-.5,5.5-.3,8.3-.4,2.2,0,4.5,0,6.9,0,0-.8.1-1.6.1-2.3,0-8.6,0-17.2,0-25.7,0-.9-.6-2.1-1.3-2.7-3.9-3.4-7.9-6.8-12-10.1-.9-.7-2-1.4-3.1-1.5-16.6-1.7-29.9-9.5-41.1-21.5-15-16.1-23.6-35.5-28.5-56.6-2.7-11.8-3.9-23.7-4-35.7,0-4.4,2.8-7.2,7.3-7.2,8.7,0,17.5,0,26.2,0h2.5c0-2.7.1-5.2,0-7.8-.3-4.2,1.2-7.3,5.2-8.8h146.9c4.1,1.5,5.5,4.6,5.2,8.8-.2,2.5,0,5,0,7.8h2.4c8.2,0,16.4.2,24.6,0,4.2-.1,7.2,1.1,9,5v8.5h0Z"/>
  <path class="cls-1" d="M240.6,196.2c.2,0,.3.2.3.1.5-.2,1-.3,1.5-.5,10.5-4.6,18.5-12.1,25.2-21.2,10.5-14.3,16.6-30.4,19.8-47.7,1.3-7.1,2-14.4,3-21.7h-23.6c-2.9,32.1-9.9,62.8-26.1,90.9Z"/>
  <path class="cls-1" d="M253.3,103.7c.4-4.9.5-9.9.8-15H123.8c.3,14.2,1.7,27.9,4.2,41.6,3.5,19.2,9.2,37.8,18.6,55,5.6,10.4,12.5,19.8,22.3,26.8,8.9,6.3,18.7,8.8,29.4,5.4,9.5-3,16.6-9.2,22.7-16.8,12.5-15.4,19.6-33.5,24.8-52.3,4.1-14.6,6.3-29.6,7.5-44.7h0Z"/>
</svg>