<?xml version="1.0" encoding="UTF-8"?>
<svg id="Layer_1" data-name="Layer 1" xmlns="http://www.w3.org/2000/svg" version="1.1" viewBox="0 0 100 100">
  <defs>
    <style>
      .cls-1 {
        fill: #49583c;
        stroke-width: 0px;
      }
    </style>
  </defs>
  <path class="cls-1" d="M0,50C0,23.1,21.4.7,48.6,0c28.6-.8,51.4,22.3,51.4,49.9s-22.4,50.2-50.2,50.1C22.2,99.9,0,77.6,0,50ZM50,62.5h0c-1,0-2.1,0-3.2,0-2,0-4.1,0-6,.2-8.2,1.2-13.9,5.8-17.2,13.3-.2.4-.1.7.2,1,2.6,2.5,5.5,4.7,8.7,6.3,9.6,4.8,19.5,5.6,29.7,2.2,5.2-1.8,9.8-4.7,13.8-8.5.3-.3.4-.6.2-1-.3-.6-.6-1.2-.9-1.8-4-7.2-10.1-11.2-18.4-11.6-2.3-.1-4.6,0-6.9,0h0ZM50,25c-7.6,0-14,6.3-14.1,14,0,7.8,6.1,14.1,14,14.2,7.7,0,14.1-6.3,14.1-14,0-7.6-6.4-14.1-14.1-14.1h0Z"/>
</svg>