<?xml version="1.0" encoding="UTF-8"?>
<svg id="Layer_1" data-name="Layer 1" xmlns="http://www.w3.org/2000/svg" viewBox="0 0 100 100">
  <defs>
    <style>
      .cls-1 {
        fill: #49583c;
        stroke-width: 0px;
      }
    </style>
  </defs>
  <path class="cls-1" d="M50.02,100C22.51,100.05.03,77.57,0,50.01-.03,23.08,21.37.85,48.35.02c28.84-.88,51.26,22.21,51.61,49.27.36,27.46-21.7,50.52-49.94,50.7ZM48.47,66.13h0c.98,0,1.96.02,2.94-.01,1.14-.04,1.74-.6,1.9-1.72.07-.47.07-.94.09-1.42.09-2.3.88-4.32,2.56-5.9,1.1-1.04,2.36-1.91,3.52-2.9,1.7-1.45,3.56-2.75,5-4.42,4.48-5.17,5.1-12.56,1.79-19.01-3.57-6.96-11.28-10.99-18.9-9.86-8,1.18-14.29,7.24-15.66,15.08-.22,1.29.33,2.14,1.6,2.35,1.87.31,3.74.59,5.62.85,1.38.19,1.97-.28,2.28-1.67.78-3.52,2.9-5.88,6.35-6.83,3.41-.94,6.43-.02,8.87,2.59,3.33,3.57,2.96,8.76-.83,11.76-1.43,1.14-2.92,2.2-4.35,3.33-5.06,3.95-7.49,9.2-7.58,15.57-.02,1.47.66,2.17,2.16,2.2.88.02,1.76,0,2.64,0ZM48.49,79.2c2.69,0,4.86-2.16,4.85-4.81-.01-2.63-2.24-4.82-4.88-4.8-2.59.02-4.78,2.2-4.8,4.78-.02,2.65,2.17,4.83,4.83,4.83Z"/>
</svg>