<?xml version="1.0" encoding="UTF-8"?>
<svg id="Layer_1" data-name="Layer 1" xmlns="http://www.w3.org/2000/svg" viewBox="0 0 377.87 377.87">
  <defs>
    <style>
      .cls-1 {
        fill: #f4c430;
        stroke-width: 0px;
      }
    </style>
  </defs>
  <path class="cls-1" d="M188.94,0C84.59,0,0,84.59,0,188.94s84.59,188.94,188.94,188.94,188.94-84.59,188.94-188.94S293.28,0,188.94,0ZM198.89,53.52c12.11.09,22.42,9.93,22.21,22.69-.2,12.55-10.04,21.95-22.28,22.11-12.76-.14-22.41-9.99-22.43-22.27,0-13.13,10.5-22.62,22.5-22.53h0ZM267.02,194.16c-2.71,3.65-7.87,5.41-11.91,3.29-3.42-1.8-6.6-4.07-9.8-6.26-8.04-5.51-15.96-11.2-24.09-16.58-3.12-2.07-4.54-5.1-6.08-8.18-1.88-3.75-3.73-7.52-5.61-11.28-.16-.31-.39-.59-.77-1.16-.56,2.31-1.06,4.33-1.52,6.35-1.39,6.11-2.75,12.23-4.14,18.35-1.43,6.32-2.89,12.63-4.27,18.97-.12.53.09,1.31.44,1.73,7.25,8.58,14.55,17.12,21.81,25.69,5.65,6.67,11.32,13.33,16.81,20.12,1.15,1.42,1.85,3.37,2.25,5.19,1.37,6.28,2.54,12.61,3.74,18.93.76,3.97,1.41,7.96,2.16,11.93,1.06,5.65,2.29,11.26,3.21,16.93.71,4.34,2.18,8.59,1.53,13.11-.76,5.34-3.6,9.18-8.36,11.47-6.29,3.02-12.89,1.64-17.63-3.47-2.36-2.54-3.48-5.68-4.13-9.02-.96-4.96-1.92-9.92-2.86-14.88-1.17-6.16-2.3-12.33-3.46-18.5-1.03-5.49-2.02-10.99-3.14-16.46-.2-.97-.84-1.94-1.52-2.69-8.91-9.83-17.86-19.62-26.8-29.42-1.35-1.48-2.7-2.95-4.29-4.68-.68,3.03-1.32,5.74-1.91,8.46-1.23,5.66-2.45,11.33-3.66,16.99-.63,2.96-1.02,5.99-1.93,8.87-.74,2.35-1.92,4.61-3.17,6.75-8.22,14.04-16.5,28.06-24.81,42.05-2.33,3.93-4.49,8.02-7.27,11.62-6.82,8.84-19.9,7.55-25.22-2.29-.18-.33-.35-.67-.43-1.03-1.06-5.1-1.37-10.1,1.49-14.84,6.01-9.97,11.96-19.98,17.92-29.98,3.16-5.3,6.42-10.54,9.38-15.95,1.07-1.95,1.5-4.29,2.01-6.49,1.7-7.24,3.31-14.5,4.94-21.76,1.92-8.56,3.83-17.12,5.76-25.68,1.45-6.43,2.94-12.85,4.39-19.28,1.65-7.31,3.26-14.62,4.9-21.93.93-4.14,1.88-8.27,2.82-12.4l-.32-.14c-4.01,3.24-7.87,6.69-12.08,9.64-3.05,2.13-3.84,4.98-4.5,8.3-1.32,6.72-2.96,13.39-4.46,20.08-1.02,4.56-1.9,9.16-3.1,13.67-1.2,4.52-5.52,7.28-10.55,7.09-4-.15-8.08-3.57-8.73-7.85-.32-2.14.04-4.47.48-6.63,1.38-6.82,2.94-13.6,4.45-20.39,1.18-5.29,2.39-10.57,3.6-15.85.33-1.45.81-2.87,1.02-4.34.46-3.29,2.36-5.58,4.84-7.58,9.24-7.46,18.45-14.97,27.67-22.45,5.17-4.19,10.27-8.49,15.58-12.5,6.61-4.99,14.01-6.42,21.86-3.5,5.68,2.11,9.96,6.05,12.73,11.52,3.85,7.6,7.72,15.19,11.56,22.79,3.23,6.4,6.4,12.82,9.65,19.21.37.72.97,1.41,1.63,1.86,9.84,6.83,19.72,13.59,29.55,20.43,2.38,1.66,3.87,3.92,3.66,7.02-.16,2.41.29,4.82-1.36,7.05l.04-.02Z"/>
</svg>