<?xml version="1.0" encoding="UTF-8"?>
<svg id="Layer_1" data-name="Layer 1" xmlns="http://www.w3.org/2000/svg" viewBox="0 0 377.87 377.87">
  <defs>
    <style>
      .cls-1 {
        fill: #f4c430;
        stroke-width: 0px;
      }
    </style>
  </defs>
  <path class="cls-1" d="M188.66,336.61c-52.68,0-105.35-.03-158.03.04-6.59,0-11.94-2.03-15.77-7.5-4.1-5.85-3.89-13.88.46-19.5,25.49-33,41.29-70.13,47.44-111.36,2.29-15.37,2.35-30.83,2.22-46.34-.3-36.72,12.52-67.92,40.52-92.23,14.05-12.2,30.17-20.9,48.02-26.27,1.72-.52,2.47-1.18,2.61-3.1C157.38,13.3,171.66.09,188.8,0c16.9-.09,31.31,12.94,32.84,29.89.2,2.19.93,3.07,2.98,3.73,26.03,8.28,48.16,22.38,64.77,44.34,14.03,18.55,21.68,39.64,23.02,62.83.69,11.97.1,24,.63,35.98,1.33,29.91,8.5,58.47,20.86,85.72,7.63,16.81,17.1,32.52,28.45,47.08,4.19,5.37,4.59,11.18,1.83,17.18-2.78,6.03-7.63,9.64-14.31,9.74-15.59.23-31.18.14-46.77.14-38.15.01-76.3,0-114.45,0v-.02ZM102.49,129.32c-.03,4.99,2.41,7.81,5.7,8.26,3.24.44,6.19-1.77,7.21-5.38,6.34-22.42,19.35-39.04,41.46-47.8,3.62-1.44,5.18-4.85,3.95-8.2-1.3-3.54-4.73-5.15-8.49-3.92-1.47.48-2.91,1.06-4.31,1.71-18.97,8.68-32.26,22.94-40.66,41.85-2.14,4.82-3.6,9.95-4.86,13.48Z"/>
  <path class="cls-1" d="M188.66,349.71c12.38,0,24.75,0,37.13,0,3.7,0,4.58,1.41,2.72,4.66-8.72,15.32-21.99,23.5-39.56,23.49-17.72,0-31.37-7.84-40.02-23.64-1.79-3.27-.94-4.52,2.88-4.52,12.28,0,24.56,0,36.84,0Z"/>
</svg>