<?xml version="1.0" encoding="UTF-8"?>
<svg id="Layer_1" data-name="Layer 1" xmlns="http://www.w3.org/2000/svg" viewBox="0 0 377.87 377.87">
  <defs>
    <style>
      .cls-1 {
        fill: #f4c430;
        stroke-width: 0px;
      }
    </style>
  </defs>
  <path class="cls-1" d="M177.84,231.03v23.85h22.23v-23.91c-7.51,1.92-14.86,1.84-22.23.06Z"/>
  <path class="cls-1" d="M151.45,268.59c-4.84.52-9.2,4.67-9.52,9.52-.28,4.15-.06,8.33-.06,12.68h94.14c0-4.27.23-8.38-.05-12.46-.42-5.98-5.37-9.86-12.22-9.86-23.2-.02-46.4,0-69.6,0-.89,0-1.79.03-2.68.12h0Z"/>
  <path class="cls-1" d="M87.94,105.28c.65,15.5,3.46,30.43,9.04,44.79,4.74,12.19,11.12,23.4,20.31,32.85,5.66,5.82,12.08,10.56,20.2,13.72-16.49-28.55-23.47-59.36-26.32-91.35h-23.23Z"/>
  <path class="cls-1" d="M188.94.84C84.59.84,0,85.43,0,189.78s84.59,188.94,188.94,188.94,188.94-84.59,188.94-188.94S293.28.84,188.94.84ZM303.57,105.16c-.44,4.59-.76,9.2-1.33,13.77-3.07,24.48-10.8,47.18-26.24,66.75-9.43,11.96-21.04,21.1-36.03,25.23-3,.83-6.12,1.3-9.21,1.71-1.7.23-2.99.8-4.29,1.97-3.71,3.33-7.64,6.41-11.43,9.65-.61.52-1.37,1.33-1.38,2.01-.09,9.47-.06,18.94-.06,28.78.99,0,1.85-.03,2.71,0,4.54.16,9.17-.17,13.6.61,10.85,1.9,18.95,11.36,19.54,22.33.22,4.23.04,8.47.04,12.72,1.02.24,1.74.38,2.43.58,3.16.95,5.07,3.72,4.8,6.93-.27,3.28-2.75,5.8-6.07,6.14-.67.07-1.34.04-2.01.04h-119.77c-4.65,0-7.65-2.54-7.78-6.52-.12-3.7,2.16-6.06,7.15-7.17,0-3.42-.05-6.9,0-10.39.23-12.96,8.31-22.78,20.67-24.92,2.69-.47,5.5-.3,8.26-.36,2.23-.05,4.46,0,6.95,0,.05-.84.12-1.55.12-2.26,0-8.58.05-17.16-.05-25.74,0-.92-.6-2.09-1.31-2.71-3.91-3.44-7.92-6.77-11.96-10.05-.87-.7-2-1.37-3.07-1.48-16.58-1.66-29.92-9.52-41.06-21.47-15-16.09-23.56-35.46-28.46-56.65-2.72-11.75-3.87-23.67-4.02-35.71-.06-4.44,2.76-7.21,7.28-7.23,8.73-.03,17.46,0,26.19,0h2.49c0-2.73.14-5.25-.03-7.76-.29-4.21,1.15-7.26,5.24-8.8h146.88c4.08,1.54,5.54,4.57,5.24,8.78-.18,2.5-.03,5.02-.03,7.78h2.43c8.19,0,16.39.16,24.57-.07,4.18-.11,7.22,1.11,8.98,5v8.51h.02Z"/>
  <path class="cls-1" d="M240.6,196.22c.18.09.26.16.3.15.49-.17.98-.33,1.46-.54,10.47-4.6,18.55-12.1,25.21-21.19,10.45-14.26,16.65-30.36,19.8-47.65,1.3-7.14,1.98-14.38,2.95-21.7h-23.65c-2.85,32.06-9.85,62.83-26.07,90.93Z"/>
  <path class="cls-1" d="M253.29,103.71c.39-4.95.52-9.93.78-15.01H123.85c.31,14.17,1.66,27.95,4.17,41.61,3.54,19.23,9.17,37.78,18.57,55.01,5.65,10.36,12.48,19.84,22.27,26.77,8.94,6.32,18.69,8.78,29.41,5.4,9.46-2.98,16.6-9.25,22.69-16.77,12.48-15.43,19.57-33.47,24.79-52.34,4.05-14.62,6.34-29.57,7.53-44.68h0Z"/>
</svg>