<?xml version="1.0" encoding="UTF-8"?>
<svg id="Layer_1" data-name="Layer 1" xmlns="http://www.w3.org/2000/svg" viewBox="0 0 100 100">
  <defs>
    <style>
      .cls-1 {
        fill: #49583c;
        stroke-width: 0px;
      }
    </style>
  </defs>
  <path class="cls-1" d="M0,50C-.04,23.06,21.39.74,48.57.02c28.63-.76,51.42,22.33,51.42,49.9s-22.43,50.18-50.22,50.09C22.16,99.91-.03,77.61,0,50ZM50.02,62.5h0c-1.05,0-2.1-.02-3.15,0-2.02.04-4.06-.09-6.04.2-8.17,1.23-13.85,5.78-17.21,13.3-.18.4-.15.65.17.96,2.61,2.52,5.5,4.67,8.73,6.31,9.57,4.82,19.47,5.59,29.65,2.19,5.24-1.75,9.8-4.65,13.78-8.46.33-.32.43-.58.2-1-.32-.59-.55-1.24-.88-1.84-4.02-7.22-10.1-11.22-18.4-11.64-2.28-.12-4.57-.02-6.86-.02h.01ZM49.99,24.98c-7.61-.06-14,6.29-14.06,13.98-.06,7.84,6.14,14.12,14.01,14.18,7.71.06,14.08-6.26,14.14-14.03.06-7.63-6.36-14.07-14.08-14.13h0Z"/>
</svg>